<?xml version="1.0" standalone="no"?>
<!DOCTYPE svg PUBLIC "-//W3C//DTD SVG 1.1//EN" "http://www.w3.org/Graphics/SVG/1.1/DTD/svg11.dtd" >
<svg xmlns="http://www.w3.org/2000/svg" xmlns:xlink="http://www.w3.org/1999/xlink" version="1.1">
<metadata>
Created by FontForge 20170731 at Fri Apr 28 06:26:10 2023
 By Aleksey,,,
Copyright (c) 2017, Created by Aaron Amar
http://be.net/aaronamar
</metadata>
<defs>
<font id="Alta_light" horiz-adv-x="1585" >
  <font-face 
    font-family="Alta Light"
    font-weight="400"
    font-stretch="normal"
    units-per-em="2048"
    panose-1="2 0 3 3 0 0 0 0 0 0"
    ascent="1638"
    descent="-410"
    x-height="1285"
    cap-height="1285"
    bbox="-303 -397 2202 1767"
    underline-thickness="102"
    underline-position="-307"
    unicode-range="U+0020-2122"
  />
<missing-glyph horiz-adv-x="1024" 
d="M102 0v1092h820v-1092h-820zM205 102h614v887h-614v-887z" />
    <glyph glyph-name=".notdef" horiz-adv-x="1024" 
d="M102 0v1092h820v-1092h-820zM205 102h614v887h-614v-887z" />
    <glyph glyph-name=".null" horiz-adv-x="0" 
 />
    <glyph glyph-name="nonmarkingreturn" horiz-adv-x="682" 
 />
    <glyph glyph-name="space" unicode=" " horiz-adv-x="512" 
 />
    <glyph glyph-name="exclam" unicode="!" horiz-adv-x="303" 
d="M151 118l76 -76l-76 -75l-75 75zM165 281h-28l-23 1029h74z" />
    <glyph glyph-name="quotedbl" unicode="&#x22;" horiz-adv-x="491" 
d="M143 1035h-28l-23 320h73zM376 1035h-28l-23 320h74z" />
    <glyph glyph-name="numbersign" unicode="#" horiz-adv-x="1040" 
d="M946 705h-209l-112 -368h208l-22 -74h-209l-81 -265h-36l82 265h-251l-81 -265h-36l82 265h-209l22 74h209l113 368h-209l22 73h209l82 265h35l-81 -265h250l82 265h35l-81 -265h209zM589 337l113 368h-251l-113 -368h251z" />
    <glyph glyph-name="dollar" unicode="$" horiz-adv-x="856" 
d="M404 705q20 -8 69 -23.5t84 -28t81.5 -39t75.5 -57.5t50 -83t21 -116q0 -75 -34.5 -141t-90 -111t-127.5 -71t-147 -26q-24 0 -36 1l-26 -178h-35l27 181q-69 8 -130 31t-87 42l-26 19v43q62 -47 134.5 -76t178.5 -29q57 0 114 18t104.5 51.5t77 87t29.5 118.5
q0 34 -5 63.5t-12.5 52t-21 42.5t-26.5 34.5t-34 28.5t-38.5 23t-44 19.5t-46 17.5t-50.5 17.5t-52 18.5q-13 5 -48 17.5t-50 18.5t-45.5 19t-46 24t-38.5 28t-35 35.5t-25 42.5t-18 53.5t-5 64.5q0 82 35.5 147t91 102t116 55.5t119.5 18.5q32 0 67 -5l29 194h34l-29 -200
q42 -9 81.5 -24.5t57.5 -26.5l19 -11l2 -38q-4 3 -12 8.5t-34 18.5t-54 23t-71.5 18.5t-88.5 8.5q-122 0 -206 -75.5t-84 -193.5q0 -55 11.5 -90.5t52 -65t72.5 -45t118 -49.5q4 -2 7 -3z" />
    <glyph glyph-name="percent" unicode="%" horiz-adv-x="1515" 
d="M723 1000q0 -142 -95 -223.5t-230 -81.5t-230.5 81.5t-95.5 223.5q0 71 21.5 126.5t55 88.5t78.5 54t86.5 29t84.5 8t84.5 -8t86 -29t78 -54t55 -88.5t21.5 -126.5zM145 1000q0 -64 18.5 -113.5t46 -78.5t63.5 -47.5t66.5 -25t58.5 -6.5t58.5 6.5t66 25t63 47.5t46 78.5
t18.5 113.5q0 79 -22 135t-60.5 84.5t-79.5 40.5t-90 12t-90 -12t-80 -40.5t-61 -84.5t-22 -135zM1119 572q43 0 84.5 -8t86.5 -29t78.5 -54t55 -88.5t21.5 -126.5q0 -142 -95.5 -223.5t-230.5 -81.5t-230.5 81.5t-95.5 223.5q0 71 21.5 126.5t55 88.5t78.5 54t86.5 29
t84.5 8zM1119 -5q28 0 58.5 6.5t66 25t63 47.5t46 78.5t18.5 113.5q0 70 -15.5 121.5t-38.5 80t-59 45t-67 21t-72 4.5t-72.5 -4.5t-67 -21t-59 -45t-39 -80t-15.5 -121.5q0 -64 18.5 -113.5t46 -78.5t63.5 -47.5t66.5 -25t58.5 -6.5zM1142 1310h40l-808 -1349h-40z" />
    <glyph glyph-name="ampersand" unicode="&#x26;" horiz-adv-x="1204" 
d="M617 1290q-103 0 -171.5 -62.5t-68.5 -180.5q0 -94 72 -191q33 -45 67 -89q102 56 145 85q53 35 83.5 62.5t53 74.5t22.5 106q0 83 -58 139t-145 56zM617 1325q133 0 204.5 -62t71.5 -162q0 -73 -31 -123t-97 -100q-79 -61 -226 -140q176 -229 356 -462q54 75 102.5 164
t70.5 141l21 52h42q-8 -23 -24 -62t-71 -142t-116 -185q34 -45 98.5 -128t91.5 -118h-92q-16 21 -38.5 50.5t-54 70l-52.5 67.5q-194 -225 -414 -225q-182 0 -283.5 93.5t-101.5 229.5q0 53 15 102t44 90.5t62 76t80 68t86 57.5t91 53l-27 36t-26 34q-50 66 -73 122t-23 124
q0 91 47.5 156t117 93.5t149.5 28.5v0zM474 702q-85 -47 -111 -67q-126 -93 -184.5 -207t-9.5 -236q37 -92 116.5 -139t175 -45t190.5 46q97 45 198 163q-292 377 -375 485z" />
    <glyph glyph-name="quotesingle" unicode="'" horiz-adv-x="258" 
d="M143 1035h-28l-23 320h73z" />
    <glyph glyph-name="parenleft" unicode="(" horiz-adv-x="487" 
d="M155 543q0 -498 264 -817h-35q-302 302 -302 817q0 519 301 823h34q-262 -320 -262 -823z" />
    <glyph glyph-name="parenright" unicode=")" horiz-adv-x="483" 
d="M331 543q0 -499 -263 -817h34q302 302 302 817q0 519 -301 823h-34q262 -320 262 -823z" />
    <glyph glyph-name="asterisk" unicode="*" horiz-adv-x="770" 
d="M690 1089l-289 -137l289 -137l-35 -60l-262 181l25 -318h-69l26 318l-263 -181l-34 60l288 137l-288 137l34 59l263 -181l-26 318h69l-25 -318l262 181z" />
    <glyph glyph-name="plus" unicode="+" horiz-adv-x="1105" 
d="M82 625v34h433v453h74v-453h433v-34h-433v-453h-74v453h-433z" />
    <glyph glyph-name="comma" unicode="," horiz-adv-x="456" 
d="M297 152h73l-260 -319h-28z" />
    <glyph glyph-name="hyphen" unicode="-" horiz-adv-x="1134" 
d="M98 625v34h940v-34h-940z" />
    <glyph glyph-name="period" unicode="." horiz-adv-x="339" 
d="M94 42l76 76l75 -76l-75 -75z" />
    <glyph glyph-name="slash" unicode="/" horiz-adv-x="983" 
d="M874 1310h39l-808 -1349h-39z" />
    <glyph glyph-name="zero" unicode="0" horiz-adv-x="1069" 
d="M534 1310q72 0 137 -24t122.5 -76.5t99.5 -130t66.5 -191t24.5 -251.5q0 -156 -31.5 -278.5t-79 -195t-110.5 -120t-119 -64.5t-110 -17t-110 17t-119 64.5t-110.5 120t-79 195t-31.5 278.5q0 172 37 304.5t100.5 211t142.5 118t170 39.5zM534 -4q49 0 96 14t100 57
t91.5 111t64 186.5t25.5 272.5q0 151 -27.5 269.5t-68 186t-94 111t-99 58t-88.5 14.5t-88.5 -14.5t-99 -58t-94 -111t-68 -186t-27.5 -269.5q0 -154 25.5 -272.5t64 -186.5t91.5 -111t100 -57t96 -14z" />
    <glyph glyph-name="one" unicode="1" horiz-adv-x="608" 
d="M498 1318h9v-1320h-74v1256l-352 -145l-13 31z" />
    <glyph glyph-name="two" unicode="2" horiz-adv-x="954" 
d="M450 391q-99 -55 -158.5 -98.5t-90.5 -86.5t-40.5 -80.5t-9.5 -93.5h722v-34h-795v34q0 95 29 158t104.5 125t226.5 145q60 33 103 60.5t95.5 72.5t85.5 91.5t55.5 112.5t22.5 141t-23 135t-59 97t-85.5 61.5t-98 34.5t-100.5 10q-101 0 -176 -23t-148 -79v34
q5 4 14.5 11t42.5 24.5t69.5 31t94.5 24.5t119 11q84 0 158 -24t134.5 -71t95.5 -126t35 -181q0 -59 -13 -112.5t-33 -94t-54.5 -80t-65 -66.5t-78 -58.5t-81 -51t-85.5 -47.5q-9 -5 -13 -7z" />
    <glyph glyph-name="three" unicode="3" horiz-adv-x="940" 
d="M512 687q57 -6 106 -19.5t96.5 -39.5t80.5 -63t53 -93.5t20 -126.5q0 -67 -17 -122.5t-45.5 -94t-69.5 -68t-83.5 -47t-93.5 -28t-95 -14.5t-91 -4q-159 0 -301 49v34q111 -49 307 -49q80 0 151 18.5t132 57t97 107.5t36 161q0 65 -18.5 116t-44 83.5t-71.5 55.5
t-81.5 34t-96 17t-91.5 6.5t-90 0.5h-21v34q92 0 175 20.5t149.5 59.5t105.5 103.5t39 145.5q0 69 -26.5 119t-73 78t-103 41t-124.5 13q-83 0 -168.5 -20t-140.5 -44v34q56 27 159.5 45.5t181.5 18.5q185 0 276.5 -78.5t91.5 -216.5q0 -104 -80 -193t-231 -131z" />
    <glyph glyph-name="four" unicode="4" horiz-adv-x="1058" 
d="M988 434v-33h-172v-403h-73v403h-673v6l737 911h9v-884h172zM135 434h608v750z" />
    <glyph glyph-name="five" unicode="5" horiz-adv-x="937" 
d="M349 781q103 0 193 -23.5t162.5 -71t114.5 -127t42 -182.5q0 -94 -34.5 -167.5t-86.5 -117t-121.5 -71.5t-131.5 -38.5t-124 -10.5q-83 0 -155 16.5t-102 32.5l-30 16v33q13 -7 36.5 -17.5t98 -28.5t151.5 -18q192 0 307.5 99t115.5 272q0 95 -40 169t-105 116t-139 63.5
t-152 21.5q-68 0 -125 -6.5t-80 -12.5l-23 -7v564h664v-34h-591v-481q70 11 155 11z" />
    <glyph glyph-name="six" unicode="6" horiz-adv-x="1038" 
d="M536 750q83 0 157.5 -23t136 -69t98 -124t36.5 -178q0 -91 -30.5 -162.5t-76.5 -114t-106 -70t-112.5 -37.5t-102.5 -10q-67 0 -121 11t-107 38t-92.5 76t-70 119.5t-46 174.5t-15.5 236q0 105 20 202.5t63.5 186t106 154t154.5 104t202 38.5q122 0 185 -28v-35
q-79 29 -185 29q-62 0 -121.5 -15t-125.5 -59.5t-114 -114.5t-80 -190t-32 -276q0 -59 3 -111q38 124 139 186t237 62zM536 -4q49 0 95.5 10t94.5 35.5t84 64.5t58.5 103.5t22.5 146.5q0 89 -26.5 157.5t-64.5 105.5t-89.5 60t-92.5 30t-82 7t-82 -7t-92.5 -30t-89.5 -60
t-64.5 -105.5t-26.5 -157.5q0 -83 23 -147.5t59 -103.5t84 -64.5t94.5 -35t94.5 -9.5z" />
    <glyph glyph-name="seven" unicode="7" horiz-adv-x="966" 
d="M70 1285h825l-647 -1287h-82l630 1253h-726v34z" />
    <glyph glyph-name="eight" unicode="8" horiz-adv-x="1003" 
d="M629 714q132 -31 217 -124t85 -244q0 -89 -30 -158.5t-75.5 -111t-105 -68.5t-112.5 -36.5t-105 -9.5t-105 9.5t-112.5 36.5t-104.5 68.5t-75 111t-30 158.5q0 151 85 244t217 124q-102 32 -168.5 106t-66.5 180q0 71 25 126.5t63.5 88.5t88.5 54.5t95 29t88 7.5t88 -7.5
t95.5 -29t88.5 -54.5t63.5 -88.5t25.5 -126.5q0 -106 -66.5 -180t-168.5 -106zM216 1000q0 -63 22 -113t54.5 -79t74 -47.5t74.5 -25t62 -6.5t62.5 6.5t74.5 25t73.5 47.5t55 79t22.5 113q0 279 -288 279q-287 0 -287 -279zM503 -4q48 0 91 6.5t93.5 29t86.5 59t60 102
t24 153.5q0 86 -28 152t-68 102t-92 58.5t-91.5 29.5t-75.5 7t-75.5 -7t-91.5 -29.5t-91.5 -58.5t-67.5 -102t-28 -152q0 -88 24 -153.5t59.5 -102t86 -59t93.5 -29t91 -6.5z" />
    <glyph glyph-name="nine" unicode="9" horiz-adv-x="1013" 
d="M492 1302q80 0 146.5 -20.5t124.5 -69t96.5 -122.5t57.5 -187t12 -256q-5 -104 -30.5 -202t-74.5 -186t-115 -154t-159 -104.5t-200 -38.5q-117 0 -179 29v35q80 -30 179 -30q42 0 86 9t94.5 31.5t96.5 57.5t88.5 91t73.5 127t49.5 171.5t18.5 218.5q0 42 -1 66
q-38 -125 -138 -189t-226 -64q-83 0 -156 23t-132.5 68.5t-94.5 123t-35 178.5q0 91 29.5 162.5t74 114t103 70t110 37.5t101.5 10zM492 549q32 0 65.5 6t73.5 19.5t74.5 39.5t63.5 62.5t46 93t17 125.5q0 86 -23.5 153.5t-59 107.5t-82.5 66.5t-90 36t-85 9.5
q-60 0 -118.5 -21t-110.5 -62.5t-84 -113t-32 -163.5q0 -82 25 -147.5t62.5 -104t86 -64t90.5 -34.5t81 -9z" />
    <glyph glyph-name="colon" unicode=":" horiz-adv-x="339" 
d="M94 42l76 76l75 -76l-75 -75zM245 617l-75 -75l-76 75l76 76z" />
    <glyph glyph-name="semicolon" unicode=";" horiz-adv-x="448" 
d="M345 617l-75 -75l-76 75l76 76zM290 152h74l-260 -319h-28z" />
    <glyph glyph-name="less" unicode="&#x3c;" horiz-adv-x="1167" 
d="M1084 1024v-29l-927 -473l927 -474v-29l-1002 468v70z" />
    <glyph glyph-name="equal" unicode="=" horiz-adv-x="1144" 
d="M102 487v34h940v-34h-940zM102 760v34h940v-34h-940z" />
    <glyph glyph-name="greater" unicode="&#x3e;" horiz-adv-x="1167" 
d="M82 1024v-29l927 -473l-927 -474v-29l1002 468v70z" />
    <glyph glyph-name="question" unicode="?" horiz-adv-x="727" 
d="M652 995q0 -59 -25 -109.5t-65 -85.5t-88.5 -66t-97 -59.5t-88.5 -58t-65 -69t-25 -84.5q0 -66 48 -107t121 -41q41 0 73.5 7.5t44.5 14.5l12 7l-1 -31q-48 -32 -130 -32q-103 0 -167 55t-64 150q0 48 25 90t65 73.5t88.5 61.5t97 60.5t88.5 64t65 79t25 97.5
q0 123 -70.5 193.5t-194.5 70.5q-156 0 -254 -76v35l12 8q13 8 35.5 19t52 22t72 18.5t87.5 7.5q157 0 240 -87t83 -228zM240 42l75 76l75 -76l-75 -75z" />
    <glyph glyph-name="at" unicode="@" horiz-adv-x="1572" 
d="M787 1310q113 0 214.5 -24t192 -76.5t156 -130t104 -191t38.5 -251.5q0 -125 -28 -228.5t-88.5 -170.5t-144.5 -67q-86 0 -128.5 48t-55.5 144q-27 -57 -67.5 -97.5t-85 -59.5t-82 -27t-74.5 -8q-42 0 -83.5 8.5t-93.5 37.5t-91 76t-65.5 132t-26.5 197q0 99 21.5 178
t56.5 129t82.5 83.5t97 47t102.5 13.5q88 0 166 -39t127 -123v162h73v-512q0 -191 30.5 -278t96.5 -87q42 0 75 28t54 72.5t34.5 103.5t19 117.5t5.5 119.5q0 110 -25 203t-65.5 158t-96 116.5t-113 83t-120.5 52t-114.5 28t-97.5 7.5t-97.5 -7.5t-114.5 -28t-120.5 -52
t-113 -83t-96 -116.5t-65.5 -158t-25 -203q0 -112 23 -205.5t61.5 -159t92 -117t109.5 -82.5t120 -51t118 -27.5t108 -7.5q25 0 57 3t86.5 11.5t114 31t108.5 55.5v-34q-5 -4 -15.5 -10t-45.5 -22t-74.5 -28t-102 -22t-128.5 -10q-85 0 -172.5 17t-186 64.5t-173 120
t-124 195t-49.5 278.5q0 138 38.5 251.5t104 191t156 130t192 76.5t214.5 24zM738 195q293 0 293 427q0 109 -22.5 191t-54 125t-74.5 69.5t-75.5 33.5t-66.5 7q-23 0 -45 -3.5t-51.5 -14.5t-54.5 -29t-50.5 -51t-43.5 -76t-29.5 -108t-11.5 -144q0 -427 286 -427z" />
    <glyph glyph-name="A" unicode="A" horiz-adv-x="1302" 
d="M72 -2l584 1312h11l562 -1312h-80l-221 517h-579l-231 -517h-46zM364 549h549l-269 629z" />
    <glyph glyph-name="B" unicode="B" horiz-adv-x="1026" 
d="M606 684q69 -10 126.5 -31.5t107 -59t77 -98t27.5 -139.5q0 -71 -25 -129.5t-62.5 -94.5t-90 -63t-97.5 -40t-96.5 -20.5t-76 -9t-45.5 -1.5h-353v1287h389q26 0 52.5 -1.5t69 -8t79.5 -17t77.5 -31t68.5 -48.5t46.5 -71.5t18.5 -96.5q0 -73 -25.5 -131.5t-70.5 -96
t-92.5 -61t-104.5 -38.5zM410 1252h-238v-560h189q95 0 174.5 15.5t147 48.5t105.5 92.5t38 140.5q0 46 -9 84t-28.5 64.5t-41.5 46.5t-55.5 32t-62.5 19.5t-71.5 11t-72.5 4.5t-75 1zM357 32q514 0 514 301q0 178 -110 251.5t-351 73.5h-238v-626h185z" />
    <glyph glyph-name="C" unicode="C" horiz-adv-x="1249" 
d="M1163 116v-46q-6 -4 -16.5 -11.5t-48.5 -26t-80 -33t-110 -26t-140 -11.5q-85 0 -170.5 17t-181 64.5t-167.5 120t-119.5 195t-47.5 278.5q0 138 38.5 251.5t104 191t156 130t192 76.5t214.5 24q65 0 128 -8.5t106 -21t76.5 -25t49.5 -21.5l16 -8v-45q-5 4 -15.5 10.5
t-47 22.5t-77 28.5t-104.5 23t-132 10.5q-47 0 -98 -7t-114 -27t-120.5 -50t-113 -81t-96 -115t-65.5 -156.5t-25 -202.5q0 -112 23.5 -205t61.5 -158t92 -115.5t110 -80.5t120 -49t117.5 -26t107.5 -7q67 0 130 12.5t105.5 30t76 35t49.5 30.5z" />
    <glyph glyph-name="D" unicode="D" horiz-adv-x="1374" 
d="M630 1285q44 0 85 -3t92.5 -11.5t97 -22.5t94.5 -38.5t89 -56.5t76.5 -79.5t61.5 -105.5t40 -135.5t15 -168.5q0 -109 -23 -200.5t-58.5 -156t-89.5 -116t-104.5 -83.5t-117 -55t-112 -33t-104 -16t-80 -6h-51.5h-8h-435v1287h532zM530 32q94 0 179.5 14.5t179.5 56.5
t162 109.5t112.5 183.5t44.5 268q0 113 -25 203.5t-63.5 150.5t-97 104.5t-114 68.5t-125.5 38t-121 17.5t-110 3.5h-380v-1218h358z" />
    <glyph glyph-name="E" unicode="E" horiz-adv-x="837" 
d="M751 1251h-579v-563h524v-34h-524v-622h579v-34h-646h-7v1287h7h646v-34z" />
    <glyph glyph-name="F" unicode="F" horiz-adv-x="825" 
d="M751 1251h-579v-563h524v-34h-524v-656h-74v1287h7h646v-34z" />
    <glyph glyph-name="G" unicode="G" horiz-adv-x="1298" 
d="M868 654h330v-584q-7 -4 -20 -11.5t-57 -26t-91 -33t-118.5 -26t-143.5 -11.5q-85 0 -170.5 17t-181 64.5t-167.5 120t-119.5 195t-47.5 278.5q0 138 38.5 251.5t104 191t156 130t192 76.5t214.5 24q104 0 198 -12t136 -24l42 -13v-42q-15 6 -44 15.5t-126.5 25.5
t-205.5 16q-50 0 -103 -7t-116.5 -27t-120.5 -50t-111 -80.5t-93.5 -115t-63.5 -157t-24 -202.5q0 -140 35.5 -251t95 -183t142 -119.5t171 -67.5t188.5 -20q172 0 337 78v546h-256v34z" />
    <glyph glyph-name="H" unicode="H" horiz-adv-x="1099" 
d="M920 1285h73v-1287h-73v656h-748v-656h-74v1287h74v-597h748v597z" />
    <glyph glyph-name="I" unicode="I" horiz-adv-x="317" 
d="M119 -2v1287h73v-1287h-73z" />
    <glyph glyph-name="J" unicode="J" horiz-adv-x="282" 
d="M104 1285h73v-1317q0 -154 -102 -259.5t-278 -105.5v34q150 0 228.5 88t78.5 243v1317z" />
    <glyph glyph-name="K" unicode="K" horiz-adv-x="980" 
d="M98 -2v1287h74v-1287h-74zM317 690l591 -692h-97l-568 665l606 622h47z" />
    <glyph glyph-name="L" unicode="L" horiz-adv-x="835" 
d="M172 32h585v-34h-659v1287h74v-1253z" />
    <glyph glyph-name="M" unicode="M" horiz-adv-x="1640" 
d="M1404 1310l154 -1312h-73l-135 1147l-546 -1034h-7l-534 1030l-155 -1143h-34l178 1312h5l566 -1090l576 1090h5z" />
    <glyph glyph-name="N" unicode="N" horiz-adv-x="1251" 
d="M1144 1285v-1323h-7l-1005 1201v-1165h-34v1312h6l1006 -1201v1176h34z" />
    <glyph glyph-name="O" unicode="O" 
d="M787 1310q113 0 214.5 -24t192 -76.5t156 -130t104 -191t38.5 -251.5q0 -156 -49.5 -278.5t-124 -195t-173 -120t-186 -64.5t-172.5 -17t-172.5 17t-186 64.5t-173 120t-124 195t-49.5 278.5q0 138 38.5 251.5t104 191t156 130t192 76.5t214.5 24zM787 -4q54 0 108 7
t118 26t120 49t109.5 80.5t92 115.5t61.5 158t23 205q0 110 -25 202.5t-65.5 156.5t-96 115t-113 81t-120.5 50t-114 27t-98 7t-98 -7t-114 -27t-120.5 -50t-113 -81t-96 -115t-65.5 -156.5t-25 -202.5q0 -112 23 -205t61.5 -158t92 -115.5t109.5 -80.5t120 -49t118 -26
t108 -7z" />
    <glyph glyph-name="P" unicode="P" horiz-adv-x="985" 
d="M487 1285q32 0 67.5 -4.5t85 -15.5t93 -34.5t82.5 -57t61.5 -87.5t22.5 -122q0 -76 -26 -136.5t-63 -98t-92 -65t-99.5 -40t-99.5 -19.5t-77.5 -8t-48.5 -1h-221v-598h-74v1287h389zM357 630q76 0 141 8.5t127 30.5t105.5 56t69.5 89.5t26 126.5q0 77 -23.5 134
t-61.5 90.5t-94.5 53.5t-111.5 26.5t-125 6.5h-238v-622h185z" />
    <glyph glyph-name="Q" unicode="Q" 
d="M1492 637q0 -398 -305 -572l259 -327h-93l-233 293q-157 -69 -333 -69q-85 0 -172.5 17t-186 64.5t-173 120t-124 195t-49.5 278.5q0 138 38.5 251.5t104 191t156 130t192 76.5t214.5 24t214.5 -24t192 -76.5t156 -130t104 -191t38.5 -251.5zM787 -4q168 0 310 65
l-233 293h94l204 -258q257 163 257 541q0 110 -25 202.5t-65.5 156.5t-96 115t-113 81t-120.5 50t-114 27t-98 7t-98 -7t-114 -27t-120.5 -50t-113 -81t-96 -115t-65.5 -156.5t-25 -202.5q0 -112 23 -205t61.5 -158t92 -115.5t109.5 -80.5t120 -49t118 -26t108 -7z" />
    <glyph glyph-name="R" unicode="R" horiz-adv-x="1069" 
d="M1000 -2h-94l-475 599q-17 -1 -38 -1h-221v-598h-74v1287h389q32 0 67.5 -4.5t85 -15.5t93 -34.5t82.5 -57t61.5 -87.5t22.5 -122q0 -76 -25.5 -136.5t-64 -98.5t-92.5 -65t-100.5 -40t-98.5 -20zM357 630q94 0 175 17t148.5 52t106.5 97t39 145q0 76 -23.5 132.5
t-61.5 90t-94 54t-112 27.5t-125 7h-238v-622h185z" />
    <glyph glyph-name="S" unicode="S" horiz-adv-x="911" 
d="M402 717q14 -5 51 -17.5t57 -19.5t56.5 -21.5t58 -26t52.5 -31t50 -37.5t41 -44t34 -53.5t20 -63t8 -74.5q0 -110 -62 -198.5t-160 -135.5t-210 -47q-62 0 -120.5 10.5t-98 25t-70 29t-44.5 25.5l-14 10v47q67 -52 148 -83.5t199 -31.5q85 0 166.5 37t138.5 112t57 170
q0 43 -9.5 80t-22.5 63t-38.5 50t-46.5 39t-58.5 32t-60.5 25.5t-67.5 24t-66.5 23.5q-138 52 -190 84q-137 85 -141 239v25q3 73 28.5 132.5t65 97.5t91 63.5t102 36t102.5 10.5q72 0 144 -19t108 -38l35 -19l2 -42q-5 3 -13.5 9t-37 20.5t-60 25.5t-80 20t-97.5 9
q-135 0 -226.5 -83t-91.5 -216q0 -40 8 -73t26.5 -58.5t39.5 -45t55.5 -37.5t64.5 -30.5t77 -29.5z" />
    <glyph glyph-name="T" unicode="T" horiz-adv-x="1075" 
d="M1008 1285v-34h-434v-1253h-73v1253h-433v34h940z" />
    <glyph glyph-name="U" unicode="U" horiz-adv-x="1169" 
d="M1036 1285h33v-811q0 -253 -126 -382.5t-372 -129.5q-117 0 -199.5 22t-148.5 77.5t-98.5 158t-32.5 254.5v811h73v-811q0 -251 97.5 -355t338.5 -104q75 0 135.5 12t118 44t96 84.5t62 138t23.5 199.5v792z" />
    <glyph glyph-name="V" unicode="V" horiz-adv-x="1294" 
d="M1178 1285h47l-584 -1312h-11l-562 1312h80l505 -1180z" />
    <glyph glyph-name="W" unicode="W" horiz-adv-x="1837" 
d="M1729 1285h35l-402 -1312h-13l-433 1068l-434 -1068h-12l-402 1312h76l359 -1171l430 1060h8l429 -1058z" />
    <glyph glyph-name="X" unicode="X" horiz-adv-x="980" 
d="M906 -2h-85l-346 591l-354 -591h-39l374 624l-388 663h85l346 -591l354 591h39l-374 -624z" />
    <glyph glyph-name="Y" unicode="Y" horiz-adv-x="1028" 
d="M921 1285h40l-411 -686v-601h-74v582l-408 705h89l374 -652z" />
    <glyph glyph-name="Z" unicode="Z" horiz-adv-x="1081" 
d="M223 32h785v-34h-890l734 1253h-784v34h889z" />
    <glyph glyph-name="bracketleft" unicode="[" horiz-adv-x="483" 
d="M411 1332h-237v-1572h237v-34h-311v1640h311v-34z" />
    <glyph glyph-name="backslash" unicode="\" horiz-adv-x="987" 
d="M109 1310h-39l808 -1349h39z" />
    <glyph glyph-name="bracketright" unicode="]" horiz-adv-x="483" 
d="M70 1332h237v-1572h-237v-34h311v1640h-311v-34z" />
    <glyph glyph-name="asciicircum" unicode="^" horiz-adv-x="694" 
d="M599 1304h-28l-223 275l-223 -275h-29l215 320h73z" />
    <glyph glyph-name="underscore" unicode="_" horiz-adv-x="1271" 
d="M1176 0h-1080v34h1080v-34z" />
    <glyph glyph-name="grave" unicode="`" horiz-adv-x="471" 
d="M346 1304l-260 320h73l215 -320h-28z" />
    <glyph glyph-name="a" unicode="a" horiz-adv-x="1302" 
d="M72 -2l584 1312h11l562 -1312h-80l-221 517h-579l-231 -517h-46zM364 549h549l-269 629z" />
    <glyph glyph-name="b" unicode="b" horiz-adv-x="1026" 
d="M606 684q69 -10 126.5 -31.5t107 -59t77 -98t27.5 -139.5q0 -71 -25 -129.5t-62.5 -94.5t-90 -63t-97.5 -40t-96.5 -20.5t-76 -9t-45.5 -1.5h-353v1287h389q26 0 52.5 -1.5t69 -8t79.5 -17t77.5 -31t68.5 -48.5t46.5 -71.5t18.5 -96.5q0 -73 -25.5 -131.5t-70.5 -96
t-92.5 -61t-104.5 -38.5zM410 1252h-238v-560h189q95 0 174.5 15.5t147 48.5t105.5 92.5t38 140.5q0 46 -9 84t-28.5 64.5t-41.5 46.5t-55.5 32t-62.5 19.5t-71.5 11t-72.5 4.5t-75 1zM357 32q514 0 514 301q0 178 -110 251.5t-351 73.5h-238v-626h185z" />
    <glyph glyph-name="c" unicode="c" horiz-adv-x="1249" 
d="M1163 116v-46q-6 -4 -16.5 -11.5t-48.5 -26t-80 -33t-110 -26t-140 -11.5q-85 0 -170.5 17t-181 64.5t-167.5 120t-119.5 195t-47.5 278.5q0 138 38.5 251.5t104 191t156 130t192 76.5t214.5 24q65 0 128 -8.5t106 -21t76.5 -25t49.5 -21.5l16 -8v-45q-5 4 -15.5 10.5
t-47 22.5t-77 28.5t-104.5 23t-132 10.5q-47 0 -98 -7t-114 -27t-120.5 -50t-113 -81t-96 -115t-65.5 -156.5t-25 -202.5q0 -112 23.5 -205t61.5 -158t92 -115.5t110 -80.5t120 -49t117.5 -26t107.5 -7q67 0 130 12.5t105.5 30t76 35t49.5 30.5z" />
    <glyph glyph-name="d" unicode="d" horiz-adv-x="1374" 
d="M630 1285q44 0 85 -3t92.5 -11.5t97 -22.5t94.5 -38.5t89 -56.5t76.5 -79.5t61.5 -105.5t40 -135.5t15 -168.5q0 -109 -23 -200.5t-58.5 -156t-89.5 -116t-104.5 -83.5t-117 -55t-112 -33t-104 -16t-80 -6h-51.5h-8h-435v1287h532zM530 32q94 0 179.5 14.5t179.5 56.5
t162 109.5t112.5 183.5t44.5 268q0 113 -25 203.5t-63.5 150.5t-97 104.5t-114 68.5t-125.5 38t-121 17.5t-110 3.5h-380v-1218h358z" />
    <glyph glyph-name="e" unicode="e" horiz-adv-x="837" 
d="M751 1251h-579v-563h524v-34h-524v-622h579v-34h-646h-7v1287h7h646v-34z" />
    <glyph glyph-name="f" unicode="f" horiz-adv-x="825" 
d="M751 1251h-579v-563h524v-34h-524v-656h-74v1287h7h646v-34z" />
    <glyph glyph-name="g" unicode="g" horiz-adv-x="1298" 
d="M868 654h330v-584q-7 -4 -20 -11.5t-57 -26t-91 -33t-118.5 -26t-143.5 -11.5q-85 0 -170.5 17t-181 64.5t-167.5 120t-119.5 195t-47.5 278.5q0 138 38.5 251.5t104 191t156 130t192 76.5t214.5 24q104 0 198 -12t136 -24l42 -13v-42q-15 6 -44 15.5t-126.5 25.5
t-205.5 16q-50 0 -103 -7t-116.5 -27t-120.5 -50t-111 -80.5t-93.5 -115t-63.5 -157t-24 -202.5q0 -140 35.5 -251t95 -183t142 -119.5t171 -67.5t188.5 -20q172 0 337 78v546h-256v34z" />
    <glyph glyph-name="h" unicode="h" horiz-adv-x="1099" 
d="M920 1285h73v-1287h-73v656h-748v-656h-74v1287h74v-597h748v597z" />
    <glyph glyph-name="i" unicode="i" horiz-adv-x="317" 
d="M119 -2v1287h73v-1287h-73z" />
    <glyph glyph-name="j" unicode="j" horiz-adv-x="282" 
d="M104 1285h73v-1317q0 -154 -102 -259.5t-278 -105.5v34q150 0 228.5 88t78.5 243v1317z" />
    <glyph glyph-name="k" unicode="k" horiz-adv-x="980" 
d="M98 -2v1287h74v-1287h-74zM317 690l591 -692h-97l-568 665l606 622h47z" />
    <glyph glyph-name="l" unicode="l" horiz-adv-x="835" 
d="M172 32h585v-34h-659v1287h74v-1253z" />
    <glyph glyph-name="m" unicode="m" horiz-adv-x="1640" 
d="M1404 1310l154 -1312h-73l-135 1147l-546 -1034h-7l-534 1030l-155 -1143h-34l178 1312h5l566 -1090l576 1090h5z" />
    <glyph glyph-name="n" unicode="n" horiz-adv-x="1251" 
d="M1144 1285v-1323h-7l-1005 1201v-1165h-34v1312h6l1006 -1201v1176h34z" />
    <glyph glyph-name="o" unicode="o" 
d="M787 1310q113 0 214.5 -24t192 -76.5t156 -130t104 -191t38.5 -251.5q0 -156 -49.5 -278.5t-124 -195t-173 -120t-186 -64.5t-172.5 -17t-172.5 17t-186 64.5t-173 120t-124 195t-49.5 278.5q0 138 38.5 251.5t104 191t156 130t192 76.5t214.5 24zM787 -4q54 0 108 7
t118 26t120 49t109.5 80.5t92 115.5t61.5 158t23 205q0 110 -25 202.5t-65.5 156.5t-96 115t-113 81t-120.5 50t-114 27t-98 7t-98 -7t-114 -27t-120.5 -50t-113 -81t-96 -115t-65.5 -156.5t-25 -202.5q0 -112 23 -205t61.5 -158t92 -115.5t109.5 -80.5t120 -49t118 -26
t108 -7z" />
    <glyph glyph-name="p" unicode="p" horiz-adv-x="985" 
d="M487 1285q32 0 67.5 -4.5t85 -15.5t93 -34.5t82.5 -57t61.5 -87.5t22.5 -122q0 -76 -26 -136.5t-63 -98t-92 -65t-99.5 -40t-99.5 -19.5t-77.5 -8t-48.5 -1h-221v-598h-74v1287h389zM357 630q76 0 141 8.5t127 30.5t105.5 56t69.5 89.5t26 126.5q0 77 -23.5 134
t-61.5 90.5t-94.5 53.5t-111.5 26.5t-125 6.5h-238v-622h185z" />
    <glyph glyph-name="q" unicode="q" 
d="M1492 637q0 -398 -305 -572l259 -327h-93l-233 293q-157 -69 -333 -69q-85 0 -172.5 17t-186 64.5t-173 120t-124 195t-49.5 278.5q0 138 38.5 251.5t104 191t156 130t192 76.5t214.5 24t214.5 -24t192 -76.5t156 -130t104 -191t38.5 -251.5zM787 -4q168 0 310 65
l-233 293h94l204 -258q257 163 257 541q0 110 -25 202.5t-65.5 156.5t-96 115t-113 81t-120.5 50t-114 27t-98 7t-98 -7t-114 -27t-120.5 -50t-113 -81t-96 -115t-65.5 -156.5t-25 -202.5q0 -112 23 -205t61.5 -158t92 -115.5t109.5 -80.5t120 -49t118 -26t108 -7z" />
    <glyph glyph-name="r" unicode="r" horiz-adv-x="1069" 
d="M1000 -2h-94l-475 599q-17 -1 -38 -1h-221v-598h-74v1287h389q32 0 67.5 -4.5t85 -15.5t93 -34.5t82.5 -57t61.5 -87.5t22.5 -122q0 -76 -25.5 -136.5t-64 -98.5t-92.5 -65t-100.5 -40t-98.5 -20zM357 630q94 0 175 17t148.5 52t106.5 97t39 145q0 76 -23.5 132.5
t-61.5 90t-94 54t-112 27.5t-125 7h-238v-622h185z" />
    <glyph glyph-name="s" unicode="s" horiz-adv-x="931" 
d="M422 717q14 -5 51 -17.5t57 -19.5t56.5 -21.5t58 -26t53 -31t50.5 -37.5t41 -44t34 -53.5t20 -63t8 -74.5q0 -110 -62 -198.5t-160.5 -135.5t-210.5 -47q-62 0 -120.5 10.5t-97.5 25t-69.5 29t-44.5 25.5l-14 10v47q67 -52 147.5 -83.5t198.5 -31.5q85 0 166.5 37
t138.5 112t57 170q0 43 -9.5 80t-22.5 63t-38.5 50t-46.5 39t-58.5 32t-60.5 25.5t-67.5 24t-66.5 23.5q-137 51 -190 84q-136 85 -140 239v25q3 73 28.5 132.5t65 97.5t91 63.5t102 36t102.5 10.5q72 0 143.5 -19t107.5 -38l35 -19l2 -42q-5 3 -13.5 9t-37 20.5t-60 25.5
t-80 20t-97.5 9q-135 0 -226 -83t-91 -216q0 -48 13.5 -86.5t34 -64.5t58.5 -49.5t73 -38.5t91 -35z" />
    <glyph glyph-name="t" unicode="t" horiz-adv-x="1075" 
d="M1008 1285v-34h-434v-1253h-73v1253h-433v34h940z" />
    <glyph glyph-name="u" unicode="u" horiz-adv-x="1169" 
d="M1036 1285h33v-811q0 -253 -126 -382.5t-372 -129.5q-117 0 -199.5 22t-148.5 77.5t-98.5 158t-32.5 254.5v811h73v-811q0 -251 97.5 -355t338.5 -104q75 0 135.5 12t118 44t96 84.5t62 138t23.5 199.5v792z" />
    <glyph glyph-name="v" unicode="v" horiz-adv-x="1294" 
d="M1178 1285h47l-584 -1312h-11l-562 1312h80l505 -1180z" />
    <glyph glyph-name="w" unicode="w" horiz-adv-x="1837" 
d="M1729 1285h35l-402 -1312h-13l-433 1068l-434 -1068h-12l-402 1312h76l359 -1171l430 1060h8l429 -1058z" />
    <glyph glyph-name="x" unicode="x" horiz-adv-x="980" 
d="M906 -2h-85l-346 591l-354 -591h-39l374 624l-388 663h85l346 -591l354 591h39l-374 -624z" />
    <glyph glyph-name="y" unicode="y" horiz-adv-x="1028" 
d="M921 1285h40l-411 -686v-601h-74v582l-408 705h89l374 -652z" />
    <glyph glyph-name="z" unicode="z" horiz-adv-x="1081" 
d="M223 32h785v-34h-890l734 1253h-784v34h889z" />
    <glyph glyph-name="braceleft" unicode="{" horiz-adv-x="665" 
d="M287 812q0 -103 -25.5 -170.5t-94.5 -95.5q69 -28 94.5 -95.5t25.5 -170.5v-189q0 -155 78 -243t228 -88v-34q-176 0 -278 105.5t-102 259.5v189q0 123 -6 154q-14 69 -74 87q-27 8 -67 8v34q27 0 48.5 4t37 11t26.5 18t17.5 25t10.5 31.5t5.5 38t1.5 43.5v49v29v189
q0 154 102 259.5t278 105.5v-34q-150 0 -228 -88t-78 -243v-189z" />
    <glyph glyph-name="bar" unicode="|" horiz-adv-x="239" 
d="M136 1595v-1954h-34v1954h34z" />
    <glyph glyph-name="braceright" unicode="}" horiz-adv-x="665" 
d="M376 812q0 -103 25.5 -170.5t94.5 -95.5q-69 -28 -94.5 -95.5t-25.5 -170.5v-189q0 -155 -78 -243t-228 -88v-34q118 0 205.5 50.5t130.5 132.5t43 182v189v26v45.5t1 39t4 36t7.5 29.5t12 26.5t18.5 19.5t26 15.5t34.5 8t44.5 3.5v34q-25 0 -44.5 3t-34.5 9t-26 14.5
t-18.5 20t-12.5 25.5t-7 30.5t-3.5 35.5t-1.5 40v45v26v189q0 100 -43 182t-130.5 132.5t-205.5 50.5v-34q150 0 228 -88t78 -243v-189z" />
    <glyph glyph-name="asciitilde" unicode="~" horiz-adv-x="829" 
d="M721 1526q0 -73 -43 -124t-129 -51q-41 0 -79.5 19t-63.5 41.5t-59 41.5t-67 19q-73 0 -110.5 -38t-37.5 -83h-17q0 73 44 124t130 51q41 0 81 -19t67 -41t62 -41t68 -19q65 0 101 34.5t36 85.5h17z" />
    <glyph glyph-name="exclamdown" unicode="&#xa1;" horiz-adv-x="299" 
d="M149 1159l-75 76l75 75l75 -75zM135 995h28l23 -1028h-74z" />
    <glyph glyph-name="cent" unicode="&#xa2;" horiz-adv-x="987" 
d="M117 637q0 92 24 167t66 126.5t100.5 86t124.5 50.5t141 16q69 0 131 -14t90 -28l28 -14v-34v-4q-4 2 -11 6.5t-31 14.5t-50.5 18t-69 14.5t-87.5 6.5q-48 0 -95.5 -10t-100.5 -38.5t-93 -72.5t-66.5 -119.5t-26.5 -171.5q0 -98 24.5 -173t62.5 -119.5t90.5 -72.5
t101.5 -38t103 -10q70 0 132 19t89 38l28 19v-39q-4 -3 -11 -7.5t-32 -17t-53 -22t-73 -17t-93 -7.5q-56 0 -112 11.5t-117 42.5t-107.5 79t-76.5 129.5t-30 184.5zM878 1310h39l-808 -1349h-39z" />
    <glyph glyph-name="sterling" unicode="&#xa3;" horiz-adv-x="931" 
d="M591 1251q-122 0 -206 -75t-84 -193v-324h317v-34h-317v-344q0 -190 -88 -249h638v-34h-771v34q25 0 44.5 3t34.5 9t26 14.5t18.5 20t12.5 25.5t7 30.5t3.5 35.5t1.5 40v45v26v344h-148v34h148v304q0 66 23.5 121.5t61.5 92t86.5 61.5t96.5 36t94 11q65 0 130.5 -18
t97.5 -36l33 -18v-38q-4 3 -12 8t-34 18.5t-54 23.5t-71.5 18t-88.5 8z" />
    <glyph glyph-name="yen" unicode="&#xa5;" horiz-adv-x="1038" 
d="M925 1285h40l-411 -686v-601h-74v582l-408 705h89l374 -652zM92 317v34h858v-34h-858zM92 481v34h858v-34h-858z" />
    <glyph glyph-name="brokenbar" unicode="&#xa6;" horiz-adv-x="239" 
d="M136 1595v-1954h-34v1954h34z" />
    <glyph glyph-name="section" unicode="&#xa7;" horiz-adv-x="874" 
d="M795 568q0 -111 -75 -202q75 -78 75 -202q0 -99 -58 -180.5t-149 -125.5t-191 -44q-56 0 -109 10t-88.5 24t-62.5 28t-40 24l-13 10v43q135 -104 313 -104q57 0 114 18t104.5 51.5t77 87t29.5 118.5q0 43 -7.5 78t-18.5 60t-33 47t-39.5 35t-50.5 28t-54.5 23t-62.5 22
t-64 23q-13 5 -48 17.5t-50 18.5t-46 19.5t-46 24t-38.5 28t-35.5 36t-25 42.5t-18 53.5t-5 64.5q0 126 81 209q-81 69 -81 195q0 66 23.5 121.5t61.5 92t86.5 61.5t96.5 36t94 11q65 0 130 -18t97 -36l32 -18l2 -38q-4 3 -12 8t-34 18.5t-54 23.5t-71.5 18t-88.5 8
q-122 0 -206 -75t-84 -193q0 -28 3 -50.5t12.5 -42t17.5 -33.5t28.5 -29.5t34 -24.5t46 -23.5t52 -22.5t63.5 -26q1 -1 2.5 -1.5t2.5 -0.5q20 -8 69 -23.5t84 -28t81 -38.5t75 -57.5t50 -83t21 -115.5zM415 510q19 -8 76 -25.5t106.5 -38t87.5 -49.5q37 60 37 131
q0 43 -7.5 78t-18.5 60t-33 47t-39.5 35t-50.5 28t-54.5 23t-62.5 22t-64 23q-14 5 -46.5 17t-51 19t-44 18.5t-45.5 23.5q-52 -68 -52 -158q0 -28 3 -50.5t12.5 -42t17.5 -33.5t28.5 -29.5t34 -24.5t46 -23.5t52 -22.5t63.5 -26q1 -1 2.5 -1.5t2.5 -0.5z" />
    <glyph glyph-name="dieresis" unicode="&#xa8;" horiz-adv-x="704" 
d="M520 1370l-76 75l76 76l75 -76zM182 1370l-76 75l76 76l75 -76z" />
    <glyph glyph-name="copyright" unicode="&#xa9;" horiz-adv-x="1574" 
d="M363 637q0 114 36.5 202t100.5 140t144 78t174 26q69 0 131.5 -14t90.5 -28l28 -14v-34v-4q-10 7 -29.5 17t-84.5 26.5t-136 16.5q-48 0 -95.5 -10t-100.5 -38.5t-93 -72.5t-66.5 -119.5t-26.5 -171.5q0 -98 24.5 -173t62.5 -119.5t90.5 -72.5t101.5 -38t103 -10
q70 0 132.5 19t89.5 38l28 19v-39q-4 -3 -11 -7.5t-32 -17t-53 -22t-73 -17t-93 -7.5q-56 0 -112 11.5t-117 42.5t-107.5 79t-76.5 129.5t-30 184.5zM787 1310q146 0 274 -46t224 -130.5t151.5 -213t55.5 -284.5t-55.5 -284.5t-151.5 -213t-224 -130.5t-274 -46t-274 46
t-224 130.5t-151.5 213t-55.5 284.5t55.5 284.5t151.5 213t224 130.5t274 46zM787 -13q130 0 244.5 44t201 125t136.5 205t50 275t-50 275t-136.5 205t-201 125t-244.5 44t-244.5 -44t-201 -125t-136.5 -205t-50 -275t50 -275t136.5 -205t201 -125t244.5 -44z" />
    <glyph glyph-name="ordfeminine" unicode="&#xaa;" horiz-adv-x="1302" 
d="M424 783l234 525h4l225 -525h-32l-88 207h-232l-92 -207h-19zM541 1004h220l-108 251z" />
    <glyph glyph-name="uni00AD" unicode="&#xad;" horiz-adv-x="794" 
d="M698 654h-602v34h602v-34z" />
    <glyph glyph-name="registered" unicode="&#xae;" horiz-adv-x="1574" 
d="M1064 866q0 -52 -19.5 -93.5t-49.5 -67.5t-71 -45t-77.5 -28t-76.5 -14l334 -421h-94l-329 415h-114v-415h-73v892h241q329 0 329 -223zM645 645q67 0 125 10.5t109 32.5t81 64t30 99q0 113 -73.5 159t-235.5 46h-114v-411h78zM787 1310q146 0 274 -46t224 -130.5
t151.5 -213t55.5 -284.5t-55.5 -284.5t-151.5 -213t-224 -130.5t-274 -46t-274 46t-224 130.5t-151.5 213t-55.5 284.5t55.5 284.5t151.5 213t224 130.5t274 46zM787 -13q130 0 244.5 44t201 125t136.5 205t50 275t-50 275t-136.5 205t-201 125t-244.5 44t-244.5 -44
t-201 -125t-136.5 -205t-50 -275t50 -275t136.5 -205t201 -125t244.5 -44z" />
    <glyph glyph-name="macron" unicode="&#xaf;" horiz-adv-x="841" 
d="M721 1493h-602v34h602v-34z" />
    <glyph glyph-name="degree" unicode="&#xb0;" horiz-adv-x="479" 
d="M239 1348q-20 0 -40 5.5t-41 18.5t-34 39t-13 61q0 61 36.5 92t91.5 31q3 0 3.5 -12.5t-3.5 -12.5q-80 0 -80 -98q0 -99 80 -99q4 0 5 -12.5t-5 -12.5zM239 1348q-6 0 -5 12.5t5 12.5q81 0 81 99q0 98 -81 98q-4 0 -3.5 12.5t3.5 12.5q55 0 92 -31t37 -92
q0 -46 -23.5 -76t-50.5 -39t-55 -9z" />
    <glyph glyph-name="plusminus" unicode="&#xb1;" horiz-adv-x="1110" 
d="M84 0v34h940v-34h-940zM84 625v34h433v453h74v-453h433v-34h-433v-453h-74v453h-433z" />
    <glyph glyph-name="uni00B2" unicode="&#xb2;" horiz-adv-x="954" 
d="M450 940q-75 -42 -97 -70.5t-22 -72.5h289v-14h-319v14q0 55 28 89t116 82q31 17 52 31.5t44.5 38t36 54t12.5 67.5q0 71 -44 103t-102 32q-77 0 -130 -41v14q6 5 16.5 11.5t45.5 18t74 11.5q71 0 120.5 -41t49.5 -120q0 -34 -11.5 -63t-24 -47t-41.5 -39.5t-43 -29.5
t-50 -28z" />
    <glyph glyph-name="uni00B3" unicode="&#xb3;" horiz-adv-x="940" 
d="M475 1056q143 -16 143 -137q0 -46 -18.5 -77.5t-50.5 -46.5t-63 -21t-66 -6q-58 0 -121 20v14q44 -20 123 -20q69 0 117.5 33t48.5 104q0 21 -5.5 38.5t-11 30t-20.5 22.5t-22.5 15.5t-29.5 10t-28 6t-32 2.5t-28 1h-28v13q78 0 132.5 34t54.5 98q0 100 -131 100
q-68 0 -123 -25v13q22 11 63.5 18.5t72.5 7.5q74 0 111 -31.5t37 -86.5q0 -41 -32.5 -77.5t-92.5 -52.5z" />
    <glyph glyph-name="acute" unicode="&#xb4;" horiz-adv-x="473" 
d="M125 1304l259 320h-73l-215 -320h29z" />
    <glyph glyph-name="mu" unicode="&#xb5;" horiz-adv-x="976" 
d="M877 856v-858h-34v169q-83 -205 -360 -205q-108 0 -183.5 25.5t-121.5 86.5v-350h-74v1132h74v-489q0 -202 69.5 -281.5t258.5 -79.5q59 0 106.5 9t92 34.5t74 66.5t47 108.5t17.5 157.5v474h34z" />
    <glyph glyph-name="paragraph" unicode="&#xb6;" horiz-adv-x="980" 
d="M488 1285h389v-1287h-74v1254h-134v-1254h-34v598h-53q-26 0 -48 0.5t-78 7.5t-100 20t-99 40t-92 64.5t-63 98t-26 136.5q0 58 17.5 106.5t45.5 81t66.5 57.5t76 39.5t79 23t71.5 11.5t56 3zM635 630v622h-70q-70 0 -125 -6.5t-111.5 -26.5t-94.5 -53.5t-61.5 -90.5
t-23.5 -134q0 -71 26 -126.5t69.5 -89.5t105.5 -56t127 -30.5t141 -8.5h17z" />
    <glyph glyph-name="periodcentered" unicode="&#xb7;" horiz-adv-x="337" 
d="M170 586l-76 75l76 75l75 -75z" />
    <glyph glyph-name="cedilla" unicode="&#xb8;" horiz-adv-x="413" 
d="M271 -128q44 -30 44 -86q0 -57 -40.5 -85t-95.5 -28q-22 0 -41.5 4.5t-27 8t-9.5 5.5l-5 3v32l16 -9q27 -15 67 -15q78 0 78 84q0 42 -24 62.5t-58 20.5q-43 0 -67 -9v116h57v-78h10q59 0 96 -26z" />
    <glyph glyph-name="uni00B9" unicode="&#xb9;" horiz-adv-x="608" 
d="M501 1318h4v-527h-29v502l-142 -58l-5 12z" />
    <glyph glyph-name="ordmasculine" unicode="&#xba;" 
d="M784 1308q120 0 201 -67.5t81 -201.5q0 -62 -19.5 -111.5t-49.5 -78t-69.5 -47.5t-74.5 -26t-69 -7t-69 7t-74.5 26t-69.5 47.5t-49.5 78t-19.5 111.5q0 134 81 201.5t201 67.5zM784 782q31 0 62 6t66.5 23t62 44.5t44.5 75t18 108.5q0 60 -19 107.5t-47 74.5t-64 44.5
t-66 23.5t-57 6t-57 -6t-66 -23.5t-64 -44.5t-47 -74.5t-19 -107.5q0 -61 18 -108.5t44.5 -75t62 -44.5t66.5 -23t62 -6z" />
    <glyph glyph-name="questiondown" unicode="&#xbf;" horiz-adv-x="727" 
d="M74 281q0 59 25 109.5t65 85.5t88.5 66t97 59.5t88.5 58t65 69t25 84.5q0 66 -48 107.5t-121 41.5q-41 0 -73.5 -7.5t-45.5 -14.5l-12 -8l2 32q47 31 129 31q103 0 167.5 -55.5t64.5 -149.5q0 -65 -47 -119.5t-113.5 -94.5t-133.5 -81.5t-114 -100t-47 -129.5
q0 -123 70.5 -194t194.5 -71q156 0 255 77v-36l-12 -8q-13 -8 -35.5 -18.5t-52 -21.5t-72 -18.5t-87.5 -7.5q-157 0 -240 86.5t-83 227.5zM486 1235l-75 -76l-76 76l76 75z" />
    <glyph glyph-name="Agrave" unicode="&#xc0;" horiz-adv-x="1302" 
d="M641 1433l-259 320h73l215 -320h-29zM72 -2l584 1312h11l562 -1312h-80l-221 517h-579l-231 -517h-46zM364 549h549l-269 629z" />
    <glyph glyph-name="Aacute" unicode="&#xc1;" horiz-adv-x="1302" 
d="M678 1433l260 320h-74l-214 -320h28zM72 -2l584 1312h11l562 -1312h-80l-221 517h-579l-231 -517h-46zM364 549h549l-269 629z" />
    <glyph glyph-name="Acircumflex" unicode="&#xc2;" horiz-adv-x="1302" 
d="M907 1433h-29l-223 275l-223 -275h-28l215 320h73zM72 -2l584 1312h11l562 -1312h-80l-221 517h-579l-231 -517h-46zM364 549h549l-269 629z" />
    <glyph glyph-name="Atilde" unicode="&#xc3;" horiz-adv-x="1302" 
d="M1016 1609q0 -73 -43 -124.5t-129 -51.5q-41 0 -79.5 19t-63.5 41.5t-59 41.5t-67 19q-73 0 -110.5 -38t-37.5 -83h-17q0 73 44 124.5t130 51.5q41 0 81 -19t67 -41.5t62 -41.5t68 -19q65 0 101 35t36 86h17zM72 -2l584 1312h11l562 -1312h-80l-221 517h-579l-231 -517
h-46zM364 549h549l-269 629z" />
    <glyph glyph-name="Adieresis" unicode="&#xc4;" horiz-adv-x="1302" 
d="M830 1452l-75 75l75 75l75 -75zM492 1452l-75 75l75 75l75 -75zM72 -2l584 1312h11l562 -1312h-80l-221 517h-579l-231 -517h-46zM364 549h549l-269 629z" />
    <glyph glyph-name="Aring" unicode="&#xc5;" horiz-adv-x="1302" 
d="M658 1433q-20 0 -40.5 5.5t-41.5 18t-34 38.5t-13 61q0 61 37 92t92 31q3 0 3.5 -12t-3.5 -12q-81 0 -81 -99q0 -98 81 -98q4 0 5 -12.5t-5 -12.5zM658 1433q-6 0 -5 12.5t5 12.5q80 0 80 98q0 99 -80 99q-4 0 -3.5 12t3.5 12q55 0 91.5 -31t36.5 -92q0 -35 -13 -61
t-34 -38.5t-41 -18t-40 -5.5zM72 -2l584 1312h11l562 -1312h-80l-221 517h-579l-231 -517h-46zM364 549h549l-269 629z" />
    <glyph glyph-name="AE" unicode="&#xc6;" horiz-adv-x="1601" 
d="M1515 1251h-579v-563h524v-34h-524v-622h579v-34h-646h-7v517h-441l-310 -517h-39l771 1287h672v-34zM862 549v702l-421 -702h421z" />
    <glyph glyph-name="Ccedilla" unicode="&#xc7;" horiz-adv-x="1249" 
d="M867 -132q44 -30 44 -86q0 -57 -40.5 -84.5t-95.5 -27.5q-22 0 -41.5 4.5t-27 8t-9.5 5.5l-5 3v31l15 -8q28 -15 68 -15q78 0 78 83q0 42 -24 62.5t-58 20.5q-43 0 -67 -9v116h57v-78h10q59 0 96 -26zM1163 116v-46q-6 -4 -16.5 -11.5t-48.5 -26t-80 -33t-110 -26
t-140 -11.5q-85 0 -170.5 17t-181 64.5t-167.5 120t-119.5 195t-47.5 278.5q0 138 38.5 251.5t104 191t156 130t192 76.5t214.5 24q65 0 128 -8.5t106 -21t76.5 -25t49.5 -21.5l16 -8v-45q-5 4 -15.5 10.5t-47 22.5t-77 28.5t-104.5 23t-132 10.5q-47 0 -98 -7t-114 -27
t-120.5 -50t-113 -81t-96 -115t-65.5 -156.5t-25 -202.5q0 -112 23.5 -205t61.5 -158t92 -115.5t110 -80.5t120 -49t117.5 -26t107.5 -7q67 0 130 12.5t105.5 30t76 35t49.5 30.5z" />
    <glyph glyph-name="Egrave" unicode="&#xc8;" horiz-adv-x="837" 
d="M438 1433l-260 320h73l215 -320h-28zM751 1251h-579v-563h524v-34h-524v-622h579v-34h-646h-7v1287h7h646v-34z" />
    <glyph glyph-name="Eacute" unicode="&#xc9;" horiz-adv-x="837" 
d="M449 1433l260 320h-73l-215 -320h28zM751 1251h-579v-563h524v-34h-524v-622h579v-34h-646h-7v1287h7h646v-34z" />
    <glyph glyph-name="Ecircumflex" unicode="&#xca;" horiz-adv-x="837" 
d="M676 1433h-28l-223 275l-223 -275h-29l215 320h73zM751 1251h-579v-563h524v-34h-524v-622h579v-34h-646h-7v1287h7h646v-34z" />
    <glyph glyph-name="Edieresis" unicode="&#xcb;" horiz-adv-x="837" 
d="M604 1452l-76 75l76 75l75 -75zM266 1452l-76 75l76 75l75 -75zM751 1251h-579v-563h524v-34h-524v-622h579v-34h-646h-7v1287h7h646v-34z" />
    <glyph glyph-name="Igrave" unicode="&#xcc;" horiz-adv-x="317" 
d="M125 1433l-260 320h73l215 -320h-28zM119 -2v1287h73v-1287h-73z" />
    <glyph glyph-name="Iacute" unicode="&#xcd;" horiz-adv-x="317" 
d="M153 1433l260 320h-73l-215 -320h28zM119 -2v1287h73v-1287h-73z" />
    <glyph glyph-name="Icircumflex" unicode="&#xce;" horiz-adv-x="317" 
d="M409 1433h-29l-223 275l-223 -275h-28l214 320h74zM119 -2v1287h73v-1287h-73z" />
    <glyph glyph-name="Idieresis" unicode="&#xcf;" horiz-adv-x="317" 
d="M330 1452l-75 75l75 75l75 -75zM-8 1452l-75 75l75 75l75 -75zM119 -2v1287h73v-1287h-73z" />
    <glyph glyph-name="Eth" unicode="&#xd0;" horiz-adv-x="1484" 
d="M739 1285q44 0 85 -3t92.5 -11.5t97 -22.5t94.5 -38.5t89 -56.5t76.5 -79.5t61.5 -105.5t40 -135.5t15 -168.5q0 -109 -23 -200.5t-58.5 -156t-89.5 -116t-104.5 -83.5t-117 -55t-112 -33t-104 -16t-80 -6h-51.5h-8h-435v1287h532zM639 32q94 0 179.5 14.5t179.5 56.5
t162 109.5t112.5 183.5t44.5 268q0 113 -25 203.5t-63.5 150.5t-97 104.5t-114 68.5t-125.5 38t-121 17.5t-110 3.5h-380v-1218h358zM669 654h-601v34h601v-34z" />
    <glyph glyph-name="Ntilde" unicode="&#xd1;" horiz-adv-x="1251" 
d="M938 1609q0 -73 -43 -124.5t-129 -51.5q-41 0 -79.5 19t-63.5 41.5t-59 41.5t-67 19q-73 0 -110.5 -38t-37.5 -83h-17q0 73 44 124.5t130 51.5q41 0 81 -19t67 -41.5t62 -41.5t68 -19q64 0 100 35t36 86h18zM1144 1285v-1323h-7l-1005 1201v-1165h-34v1312h6l1006 -1201
v1176h34z" />
    <glyph glyph-name="Ograve" unicode="&#xd2;" 
d="M768 1433l-260 320h74l214 -320h-28zM787 1310q113 0 214.5 -24t192 -76.5t156 -130t104 -191t38.5 -251.5q0 -156 -49.5 -278.5t-124 -195t-173 -120t-186 -64.5t-172.5 -17t-172.5 17t-186 64.5t-173 120t-124 195t-49.5 278.5q0 138 38.5 251.5t104 191t156 130
t192 76.5t214.5 24zM787 -4q54 0 108 7t118 26t120 49t109.5 80.5t92 115.5t61.5 158t23 205q0 110 -25 202.5t-65.5 156.5t-96 115t-113 81t-120.5 50t-114 27t-98 7t-98 -7t-114 -27t-120.5 -50t-113 -81t-96 -115t-65.5 -156.5t-25 -202.5q0 -112 23 -205t61.5 -158
t92 -115.5t109.5 -80.5t120 -49t118 -26t108 -7z" />
    <glyph glyph-name="Oacute" unicode="&#xd3;" 
d="M792 1433l260 320h-73l-215 -320h28zM787 1310q113 0 214.5 -24t192 -76.5t156 -130t104 -191t38.5 -251.5q0 -156 -49.5 -278.5t-124 -195t-173 -120t-186 -64.5t-172.5 -17t-172.5 17t-186 64.5t-173 120t-124 195t-49.5 278.5q0 138 38.5 251.5t104 191t156 130
t192 76.5t214.5 24zM787 -4q54 0 108 7t118 26t120 49t109.5 80.5t92 115.5t61.5 158t23 205q0 110 -25 202.5t-65.5 156.5t-96 115t-113 81t-120.5 50t-114 27t-98 7t-98 -7t-114 -27t-120.5 -50t-113 -81t-96 -115t-65.5 -156.5t-25 -202.5q0 -112 23 -205t61.5 -158
t92 -115.5t109.5 -80.5t120 -49t118 -26t108 -7z" />
    <glyph glyph-name="Ocircumflex" unicode="&#xd4;" 
d="M1031 1433h-28l-223 275l-223 -275h-28l214 320h74zM787 1310q113 0 214.5 -24t192 -76.5t156 -130t104 -191t38.5 -251.5q0 -156 -49.5 -278.5t-124 -195t-173 -120t-186 -64.5t-172.5 -17t-172.5 17t-186 64.5t-173 120t-124 195t-49.5 278.5q0 138 38.5 251.5t104 191
t156 130t192 76.5t214.5 24zM787 -4q54 0 108 7t118 26t120 49t109.5 80.5t92 115.5t61.5 158t23 205q0 110 -25 202.5t-65.5 156.5t-96 115t-113 81t-120.5 50t-114 27t-98 7t-98 -7t-114 -27t-120.5 -50t-113 -81t-96 -115t-65.5 -156.5t-25 -202.5q0 -112 23 -205
t61.5 -158t92 -115.5t109.5 -80.5t120 -49t118 -26t108 -7z" />
    <glyph glyph-name="Otilde" unicode="&#xd5;" 
d="M1071 1609q0 -73 -43 -124.5t-129 -51.5q-41 0 -79.5 19t-63.5 41.5t-59 41.5t-67 19q-73 0 -110.5 -38t-37.5 -83h-17q0 73 44 124.5t130 51.5q41 0 81 -19t67 -41.5t62 -41.5t68 -19q65 0 101 35t36 86h17zM787 1310q113 0 214.5 -24t192 -76.5t156 -130t104 -191
t38.5 -251.5q0 -156 -49.5 -278.5t-124 -195t-173 -120t-186 -64.5t-172.5 -17t-172.5 17t-186 64.5t-173 120t-124 195t-49.5 278.5q0 138 38.5 251.5t104 191t156 130t192 76.5t214.5 24zM787 -4q54 0 108 7t118 26t120 49t109.5 80.5t92 115.5t61.5 158t23 205
q0 110 -25 202.5t-65.5 156.5t-96 115t-113 81t-120.5 50t-114 27t-98 7t-98 -7t-114 -27t-120.5 -50t-113 -81t-96 -115t-65.5 -156.5t-25 -202.5q0 -112 23 -205t61.5 -158t92 -115.5t109.5 -80.5t120 -49t118 -26t108 -7z" />
    <glyph glyph-name="Odieresis" unicode="&#xd6;" 
d="M953 1452l-76 75l76 75l75 -75zM615 1452l-76 75l76 75l75 -75zM787 1310q113 0 214.5 -24t192 -76.5t156 -130t104 -191t38.5 -251.5q0 -156 -49.5 -278.5t-124 -195t-173 -120t-186 -64.5t-172.5 -17t-172.5 17t-186 64.5t-173 120t-124 195t-49.5 278.5
q0 138 38.5 251.5t104 191t156 130t192 76.5t214.5 24zM787 -4q54 0 108 7t118 26t120 49t109.5 80.5t92 115.5t61.5 158t23 205q0 110 -25 202.5t-65.5 156.5t-96 115t-113 81t-120.5 50t-114 27t-98 7t-98 -7t-114 -27t-120.5 -50t-113 -81t-96 -115t-65.5 -156.5
t-25 -202.5q0 -112 23 -205t61.5 -158t92 -115.5t109.5 -80.5t120 -49t118 -26t108 -7z" />
    <glyph glyph-name="multiply" unicode="&#xd7;" horiz-adv-x="892" 
d="M818 1112l-342 -454l310 -486h-87l-270 423l-319 -423h-42l342 454l-310 486h87l270 -424l319 424h42z" />
    <glyph glyph-name="Oslash" unicode="&#xd8;" 
d="M787 1310q113 0 214.5 -24t192 -76.5t156 -130t104 -191t38.5 -251.5q0 -156 -49.5 -278.5t-124 -195t-173 -120t-186 -64.5t-172.5 -17t-172.5 17t-186 64.5t-173 120t-124 195t-49.5 278.5q0 138 38.5 251.5t104 191t156 130t192 76.5t214.5 24zM787 -4q54 0 108 7
t118 26t120 49t109.5 80.5t92 115.5t61.5 158t23 205q0 110 -25 202.5t-65.5 156.5t-96 115t-113 81t-120.5 50t-114 27t-98 7t-98 -7t-114 -27t-120.5 -50t-113 -81t-96 -115t-65.5 -156.5t-25 -202.5q0 -112 23 -205t61.5 -158t92 -115.5t109.5 -80.5t120 -49t118 -26
t108 -7zM1190 1310h40l-808 -1349h-40z" />
    <glyph glyph-name="Ugrave" unicode="&#xd9;" horiz-adv-x="1169" 
d="M592 1433l-260 320h73l215 -320h-28zM1036 1285h33v-811q0 -253 -126 -382.5t-372 -129.5q-117 0 -199.5 22t-148.5 77.5t-98.5 158t-32.5 254.5v811h73v-811q0 -251 97.5 -355t338.5 -104q75 0 135.5 12t118 44t96 84.5t62 138t23.5 199.5v792z" />
    <glyph glyph-name="Uacute" unicode="&#xda;" horiz-adv-x="1169" 
d="M604 1433l259 320h-73l-215 -320h29zM1036 1285h33v-811q0 -253 -126 -382.5t-372 -129.5q-117 0 -199.5 22t-148.5 77.5t-98.5 158t-32.5 254.5v811h73v-811q0 -251 97.5 -355t338.5 -104q75 0 135.5 12t118 44t96 84.5t62 138t23.5 199.5v792z" />
    <glyph glyph-name="Ucircumflex" unicode="&#xdb;" horiz-adv-x="1169" 
d="M871 1433h-28l-223 275l-223 -275h-28l214 320h73zM1036 1285h33v-811q0 -253 -126 -382.5t-372 -129.5q-117 0 -199.5 22t-148.5 77.5t-98.5 158t-32.5 254.5v811h73v-811q0 -251 97.5 -355t338.5 -104q75 0 135.5 12t118 44t96 84.5t62 138t23.5 199.5v792z" />
    <glyph glyph-name="Udieresis" unicode="&#xdc;" horiz-adv-x="1169" 
d="M758 1452l-76 75l76 75l75 -75zM420 1452l-75 75l75 75l75 -75zM1036 1285h33v-811q0 -253 -126 -382.5t-372 -129.5q-117 0 -199.5 22t-148.5 77.5t-98.5 158t-32.5 254.5v811h73v-811q0 -251 97.5 -355t338.5 -104q75 0 135.5 12t118 44t96 84.5t62 138t23.5 199.5v792
z" />
    <glyph glyph-name="Yacute" unicode="&#xdd;" horiz-adv-x="1028" 
d="M569 1433l260 320h-73l-215 -320h28zM921 1285h40l-411 -686v-601h-74v582l-408 705h89l374 -652z" />
    <glyph glyph-name="Thorn" unicode="&#xde;" horiz-adv-x="993" 
d="M487 986q32 0 67.5 -4.5t85 -15.5t93 -34.5t82.5 -57t61.5 -87.5t22.5 -122q0 -76 -26 -136.5t-63 -98t-92 -65t-99.5 -40t-99.5 -19.5t-77.5 -8t-48.5 -1h-221v-299h-74v1287h74v-299h315zM357 331q76 0 141 8.5t127 30.5t105.5 56t69.5 89.5t26 126.5q0 77 -23.5 134
t-61.5 90.5t-94.5 53.5t-111.5 26.5t-125 6.5h-238v-622h185z" />
    <glyph glyph-name="germandbls" unicode="&#xdf;" horiz-adv-x="1052" 
d="M556 789q0 -34 23 -60.5t59.5 -45.5t80.5 -38.5t88 -44t80.5 -56t59.5 -81t23 -112.5q0 -71 -31.5 -139.5t-86.5 -122.5t-136 -87t-174 -33q-80 0 -132.5 18.5t-73.5 37.5v44q38 -33 94 -52t112 -19q82 0 164.5 43.5t136.5 118t54 154.5q0 62 -23 110t-60 77t-81.5 52.5
t-88.5 44.5t-81 44.5t-60 60t-23 84.5t18.5 89.5t46.5 69.5t61 58.5t61 56.5t46.5 62.5t18.5 77.5q0 115 -76 181.5t-180 66.5q-56 0 -108.5 -17.5t-97.5 -51.5t-72.5 -92t-27.5 -132v-1158h-74v1158q0 34 9 71t35 82.5t66 81t110 59.5t160 24q62 0 118 -15t104.5 -45.5
t77.5 -84.5t29 -125q0 -49 -18.5 -92t-46 -72t-60 -60t-60 -56.5t-46 -61t-18.5 -73.5z" />
    <glyph glyph-name="agrave" unicode="&#xe0;" horiz-adv-x="1302" 
d="M641 1433l-259 320h73l215 -320h-29zM72 -2l584 1312h11l562 -1312h-80l-221 517h-579l-231 -517h-46zM364 549h549l-269 629z" />
    <glyph glyph-name="aacute" unicode="&#xe1;" horiz-adv-x="1302" 
d="M678 1433l260 320h-74l-214 -320h28zM72 -2l584 1312h11l562 -1312h-80l-221 517h-579l-231 -517h-46zM364 549h549l-269 629z" />
    <glyph glyph-name="acircumflex" unicode="&#xe2;" horiz-adv-x="1302" 
d="M907 1433h-29l-223 275l-223 -275h-28l215 320h73zM72 -2l584 1312h11l562 -1312h-80l-221 517h-579l-231 -517h-46zM364 549h549l-269 629z" />
    <glyph glyph-name="atilde" unicode="&#xe3;" horiz-adv-x="1302" 
d="M1016 1609q0 -73 -43 -124.5t-129 -51.5q-41 0 -79.5 19t-63.5 41.5t-59 41.5t-67 19q-73 0 -110.5 -38t-37.5 -83h-17q0 73 44 124.5t130 51.5q41 0 81 -19t67 -41.5t62 -41.5t68 -19q65 0 101 35t36 86h17zM72 -2l584 1312h11l562 -1312h-80l-221 517h-579l-231 -517
h-46zM364 549h549l-269 629z" />
    <glyph glyph-name="adieresis" unicode="&#xe4;" horiz-adv-x="1302" 
d="M830 1452l-75 75l75 75l75 -75zM492 1452l-75 75l75 75l75 -75zM72 -2l584 1312h11l562 -1312h-80l-221 517h-579l-231 -517h-46zM364 549h549l-269 629z" />
    <glyph glyph-name="aring" unicode="&#xe5;" horiz-adv-x="1302" 
d="M658 1433q-20 0 -40.5 5.5t-41.5 18t-34 38.5t-13 61q0 61 37 92t92 31q3 0 3.5 -12t-3.5 -12q-81 0 -81 -99q0 -98 81 -98q4 0 5 -12.5t-5 -12.5zM658 1433q-6 0 -5 12.5t5 12.5q80 0 80 98q0 99 -80 99q-4 0 -3.5 12t3.5 12q55 0 91.5 -31t36.5 -92q0 -35 -13 -61
t-34 -38.5t-41 -18t-40 -5.5zM72 -2l584 1312h11l562 -1312h-80l-221 517h-579l-231 -517h-46zM364 549h549l-269 629z" />
    <glyph glyph-name="ae" unicode="&#xe6;" horiz-adv-x="1601" 
d="M1515 1251h-579v-563h524v-34h-524v-622h579v-34h-646h-7v517h-441l-310 -517h-39l771 1287h672v-34zM862 549v702l-421 -702h421z" />
    <glyph glyph-name="ccedilla" unicode="&#xe7;" horiz-adv-x="1249" 
d="M867 -132q44 -30 44 -86q0 -57 -40.5 -84.5t-95.5 -27.5q-22 0 -41.5 4.5t-27 8t-9.5 5.5l-5 3v31l15 -8q28 -15 68 -15q78 0 78 83q0 42 -24 62.5t-58 20.5q-43 0 -67 -9v116h57v-78h10q59 0 96 -26zM1163 116v-46q-6 -4 -16.5 -11.5t-48.5 -26t-80 -33t-110 -26
t-140 -11.5q-85 0 -170.5 17t-181 64.5t-167.5 120t-119.5 195t-47.5 278.5q0 138 38.5 251.5t104 191t156 130t192 76.5t214.5 24q65 0 128 -8.5t106 -21t76.5 -25t49.5 -21.5l16 -8v-45q-5 4 -15.5 10.5t-47 22.5t-77 28.5t-104.5 23t-132 10.5q-47 0 -98 -7t-114 -27
t-120.5 -50t-113 -81t-96 -115t-65.5 -156.5t-25 -202.5q0 -112 23.5 -205t61.5 -158t92 -115.5t110 -80.5t120 -49t117.5 -26t107.5 -7q67 0 130 12.5t105.5 30t76 35t49.5 30.5z" />
    <glyph glyph-name="egrave" unicode="&#xe8;" horiz-adv-x="837" 
d="M438 1433l-260 320h73l215 -320h-28zM751 1251h-579v-563h524v-34h-524v-622h579v-34h-646h-7v1287h7h646v-34z" />
    <glyph glyph-name="eacute" unicode="&#xe9;" horiz-adv-x="837" 
d="M449 1433l260 320h-73l-215 -320h28zM751 1251h-579v-563h524v-34h-524v-622h579v-34h-646h-7v1287h7h646v-34z" />
    <glyph glyph-name="ecircumflex" unicode="&#xea;" horiz-adv-x="837" 
d="M676 1433h-28l-223 275l-223 -275h-29l215 320h73zM751 1251h-579v-563h524v-34h-524v-622h579v-34h-646h-7v1287h7h646v-34z" />
    <glyph glyph-name="edieresis" unicode="&#xeb;" horiz-adv-x="837" 
d="M604 1452l-76 75l76 75l75 -75zM266 1452l-76 75l76 75l75 -75zM751 1251h-579v-563h524v-34h-524v-622h579v-34h-646h-7v1287h7h646v-34z" />
    <glyph glyph-name="igrave" unicode="&#xec;" horiz-adv-x="317" 
d="M125 1433l-260 320h73l215 -320h-28zM119 -2v1287h73v-1287h-73z" />
    <glyph glyph-name="iacute" unicode="&#xed;" horiz-adv-x="317" 
d="M153 1433l260 320h-73l-215 -320h28zM119 -2v1287h73v-1287h-73z" />
    <glyph glyph-name="icircumflex" unicode="&#xee;" horiz-adv-x="317" 
d="M388 1433h-28l-223 275l-223 -275h-29l215 320h73zM119 -2v1287h73v-1287h-73z" />
    <glyph glyph-name="idieresis" unicode="&#xef;" horiz-adv-x="317" 
d="M303 1452l-75 75l75 75l76 -75zM-35 1452l-75 75l75 75l76 -75zM119 -2v1287h73v-1287h-73z" />
    <glyph glyph-name="eth" unicode="&#xf0;" horiz-adv-x="1484" 
d="M739 1285q44 0 85 -3t92.5 -11.5t97 -22.5t94.5 -38.5t89 -56.5t76.5 -79.5t61.5 -105.5t40 -135.5t15 -168.5q0 -109 -23 -200.5t-58.5 -156t-89.5 -116t-104.5 -83.5t-117 -55t-112 -33t-104 -16t-80 -6h-51.5h-8h-435v1287h532zM639 32q94 0 179.5 14.5t179.5 56.5
t162 109.5t112.5 183.5t44.5 268q0 113 -25 203.5t-63.5 150.5t-97 104.5t-114 68.5t-125.5 38t-121 17.5t-110 3.5h-380v-1218h358zM669 654h-601v34h601v-34z" />
    <glyph glyph-name="ntilde" unicode="&#xf1;" horiz-adv-x="1251" 
d="M938 1609q0 -73 -43 -124.5t-129 -51.5q-41 0 -79.5 19t-63.5 41.5t-59 41.5t-67 19q-73 0 -110.5 -38t-37.5 -83h-17q0 73 44 124.5t130 51.5q41 0 81 -19t67 -41.5t62 -41.5t68 -19q64 0 100 35t36 86h18zM1144 1285v-1323h-7l-1005 1201v-1165h-34v1312h6l1006 -1201
v1176h34z" />
    <glyph glyph-name="ograve" unicode="&#xf2;" 
d="M768 1433l-260 320h74l214 -320h-28zM787 1310q113 0 214.5 -24t192 -76.5t156 -130t104 -191t38.5 -251.5q0 -156 -49.5 -278.5t-124 -195t-173 -120t-186 -64.5t-172.5 -17t-172.5 17t-186 64.5t-173 120t-124 195t-49.5 278.5q0 138 38.5 251.5t104 191t156 130
t192 76.5t214.5 24zM787 -4q54 0 108 7t118 26t120 49t109.5 80.5t92 115.5t61.5 158t23 205q0 110 -25 202.5t-65.5 156.5t-96 115t-113 81t-120.5 50t-114 27t-98 7t-98 -7t-114 -27t-120.5 -50t-113 -81t-96 -115t-65.5 -156.5t-25 -202.5q0 -112 23 -205t61.5 -158
t92 -115.5t109.5 -80.5t120 -49t118 -26t108 -7z" />
    <glyph glyph-name="oacute" unicode="&#xf3;" 
d="M792 1433l260 320h-73l-215 -320h28zM787 1310q113 0 214.5 -24t192 -76.5t156 -130t104 -191t38.5 -251.5q0 -156 -49.5 -278.5t-124 -195t-173 -120t-186 -64.5t-172.5 -17t-172.5 17t-186 64.5t-173 120t-124 195t-49.5 278.5q0 138 38.5 251.5t104 191t156 130
t192 76.5t214.5 24zM787 -4q54 0 108 7t118 26t120 49t109.5 80.5t92 115.5t61.5 158t23 205q0 110 -25 202.5t-65.5 156.5t-96 115t-113 81t-120.5 50t-114 27t-98 7t-98 -7t-114 -27t-120.5 -50t-113 -81t-96 -115t-65.5 -156.5t-25 -202.5q0 -112 23 -205t61.5 -158
t92 -115.5t109.5 -80.5t120 -49t118 -26t108 -7z" />
    <glyph glyph-name="ocircumflex" unicode="&#xf4;" 
d="M1031 1433h-28l-223 275l-223 -275h-28l214 320h74zM787 1310q113 0 214.5 -24t192 -76.5t156 -130t104 -191t38.5 -251.5q0 -156 -49.5 -278.5t-124 -195t-173 -120t-186 -64.5t-172.5 -17t-172.5 17t-186 64.5t-173 120t-124 195t-49.5 278.5q0 138 38.5 251.5t104 191
t156 130t192 76.5t214.5 24zM787 -4q54 0 108 7t118 26t120 49t109.5 80.5t92 115.5t61.5 158t23 205q0 110 -25 202.5t-65.5 156.5t-96 115t-113 81t-120.5 50t-114 27t-98 7t-98 -7t-114 -27t-120.5 -50t-113 -81t-96 -115t-65.5 -156.5t-25 -202.5q0 -112 23 -205
t61.5 -158t92 -115.5t109.5 -80.5t120 -49t118 -26t108 -7z" />
    <glyph glyph-name="otilde" unicode="&#xf5;" 
d="M1071 1609q0 -73 -43 -124.5t-129 -51.5q-41 0 -79.5 19t-63.5 41.5t-59 41.5t-67 19q-73 0 -110.5 -38t-37.5 -83h-17q0 73 44 124.5t130 51.5q41 0 81 -19t67 -41.5t62 -41.5t68 -19q65 0 101 35t36 86h17zM787 1310q113 0 214.5 -24t192 -76.5t156 -130t104 -191
t38.5 -251.5q0 -156 -49.5 -278.5t-124 -195t-173 -120t-186 -64.5t-172.5 -17t-172.5 17t-186 64.5t-173 120t-124 195t-49.5 278.5q0 138 38.5 251.5t104 191t156 130t192 76.5t214.5 24zM787 -4q54 0 108 7t118 26t120 49t109.5 80.5t92 115.5t61.5 158t23 205
q0 110 -25 202.5t-65.5 156.5t-96 115t-113 81t-120.5 50t-114 27t-98 7t-98 -7t-114 -27t-120.5 -50t-113 -81t-96 -115t-65.5 -156.5t-25 -202.5q0 -112 23 -205t61.5 -158t92 -115.5t109.5 -80.5t120 -49t118 -26t108 -7z" />
    <glyph glyph-name="odieresis" unicode="&#xf6;" 
d="M953 1452l-76 75l76 75l75 -75zM615 1452l-76 75l76 75l75 -75zM787 1310q113 0 214.5 -24t192 -76.5t156 -130t104 -191t38.5 -251.5q0 -156 -49.5 -278.5t-124 -195t-173 -120t-186 -64.5t-172.5 -17t-172.5 17t-186 64.5t-173 120t-124 195t-49.5 278.5
q0 138 38.5 251.5t104 191t156 130t192 76.5t214.5 24zM787 -4q54 0 108 7t118 26t120 49t109.5 80.5t92 115.5t61.5 158t23 205q0 110 -25 202.5t-65.5 156.5t-96 115t-113 81t-120.5 50t-114 27t-98 7t-98 -7t-114 -27t-120.5 -50t-113 -81t-96 -115t-65.5 -156.5
t-25 -202.5q0 -112 23 -205t61.5 -158t92 -115.5t109.5 -80.5t120 -49t118 -26t108 -7z" />
    <glyph glyph-name="divide" unicode="&#xf7;" horiz-adv-x="1118" 
d="M554 238l-75 75l75 75l75 -75zM554 895l-75 75l75 76l75 -76zM84 625v34h940v-34h-940z" />
    <glyph glyph-name="oslash" unicode="&#xf8;" 
d="M787 1310q113 0 214.5 -24t192 -76.5t156 -130t104 -191t38.5 -251.5q0 -156 -49.5 -278.5t-124 -195t-173 -120t-186 -64.5t-172.5 -17t-172.5 17t-186 64.5t-173 120t-124 195t-49.5 278.5q0 138 38.5 251.5t104 191t156 130t192 76.5t214.5 24zM787 -4q54 0 108 7
t118 26t120 49t109.5 80.5t92 115.5t61.5 158t23 205q0 110 -25 202.5t-65.5 156.5t-96 115t-113 81t-120.5 50t-114 27t-98 7t-98 -7t-114 -27t-120.5 -50t-113 -81t-96 -115t-65.5 -156.5t-25 -202.5q0 -112 23 -205t61.5 -158t92 -115.5t109.5 -80.5t120 -49t118 -26
t108 -7zM1190 1310h40l-808 -1349h-40z" />
    <glyph glyph-name="ugrave" unicode="&#xf9;" horiz-adv-x="1169" 
d="M592 1433l-260 320h73l215 -320h-28zM1036 1285h33v-811q0 -253 -126 -382.5t-372 -129.5q-117 0 -199.5 22t-148.5 77.5t-98.5 158t-32.5 254.5v811h73v-811q0 -251 97.5 -355t338.5 -104q75 0 135.5 12t118 44t96 84.5t62 138t23.5 199.5v792z" />
    <glyph glyph-name="uacute" unicode="&#xfa;" horiz-adv-x="1169" 
d="M604 1433l259 320h-73l-215 -320h29zM1036 1285h33v-811q0 -253 -126 -382.5t-372 -129.5q-117 0 -199.5 22t-148.5 77.5t-98.5 158t-32.5 254.5v811h73v-811q0 -251 97.5 -355t338.5 -104q75 0 135.5 12t118 44t96 84.5t62 138t23.5 199.5v792z" />
    <glyph glyph-name="ucircumflex" unicode="&#xfb;" horiz-adv-x="1169" 
d="M871 1433h-28l-223 275l-223 -275h-28l214 320h73zM1036 1285h33v-811q0 -253 -126 -382.5t-372 -129.5q-117 0 -199.5 22t-148.5 77.5t-98.5 158t-32.5 254.5v811h73v-811q0 -251 97.5 -355t338.5 -104q75 0 135.5 12t118 44t96 84.5t62 138t23.5 199.5v792z" />
    <glyph glyph-name="udieresis" unicode="&#xfc;" horiz-adv-x="1169" 
d="M758 1452l-76 75l76 75l75 -75zM420 1452l-75 75l75 75l75 -75zM1036 1285h33v-811q0 -253 -126 -382.5t-372 -129.5q-117 0 -199.5 22t-148.5 77.5t-98.5 158t-32.5 254.5v811h73v-811q0 -251 97.5 -355t338.5 -104q75 0 135.5 12t118 44t96 84.5t62 138t23.5 199.5v792
z" />
    <glyph glyph-name="yacute" unicode="&#xfd;" horiz-adv-x="1028" 
d="M569 1433l260 320h-73l-215 -320h28zM921 1285h40l-411 -686v-601h-74v582l-408 705h89l374 -652z" />
    <glyph glyph-name="thorn" unicode="&#xfe;" horiz-adv-x="993" 
d="M487 986q32 0 67.5 -4.5t85 -15.5t93 -34.5t82.5 -57t61.5 -87.5t22.5 -122q0 -76 -26 -136.5t-63 -98t-92 -65t-99.5 -40t-99.5 -19.5t-77.5 -8t-48.5 -1h-221v-299h-74v1287h74v-299h315zM357 331q76 0 141 8.5t127 30.5t105.5 56t69.5 89.5t26 126.5q0 77 -23.5 134
t-61.5 90.5t-94.5 53.5t-111.5 26.5t-125 6.5h-238v-622h185z" />
    <glyph glyph-name="ydieresis" unicode="&#xff;" horiz-adv-x="1028" 
d="M676 1452l-75 75l75 75l76 -75zM338 1452l-75 75l75 75l76 -75zM921 1285h40l-411 -686v-601h-74v582l-408 705h89l374 -652z" />
    <glyph glyph-name="OE" unicode="&#x152;" horiz-adv-x="2084" 
d="M1998 1251h-579v-563h524v-34h-524v-622h579v-34h-653v289q-43 -91 -109.5 -157.5t-144.5 -101.5t-152.5 -50.5t-151.5 -15.5q-85 0 -172.5 17t-186 64.5t-173 120t-124 195t-49.5 278.5q0 138 38.5 251.5t104 191t156 130t192 76.5t214.5 24q198 0 341.5 -77t216.5 -236
v288h653v-34zM787 -4q53 0 103.5 7t107.5 26t105 49t93 80.5t76.5 115.5t50.5 158t19 205q0 152 -39.5 269.5t-98 185.5t-137 111.5t-146 58t-134.5 14.5q-48 0 -98 -6t-114 -24t-120.5 -46.5t-113 -78t-96.5 -114t-65 -160t-25 -210.5q0 -112 23 -205t61.5 -158t92 -115.5
t109.5 -80.5t120 -49t118 -26t108 -7z" />
    <glyph glyph-name="oe" unicode="&#x153;" horiz-adv-x="2084" 
d="M1998 1251h-579v-563h524v-34h-524v-622h579v-34h-653v289q-43 -91 -109.5 -157.5t-144.5 -101.5t-152.5 -50.5t-151.5 -15.5q-85 0 -172.5 17t-186 64.5t-173 120t-124 195t-49.5 278.5q0 138 38.5 251.5t104 191t156 130t192 76.5t214.5 24q198 0 341.5 -77t216.5 -236
v288h653v-34zM787 -4q53 0 103.5 7t107.5 26t105 49t93 80.5t76.5 115.5t50.5 158t19 205q0 152 -39.5 269.5t-98 185.5t-137 111.5t-146 58t-134.5 14.5q-48 0 -98 -6t-114 -24t-120.5 -46.5t-113 -78t-96.5 -114t-65 -160t-25 -210.5q0 -112 23 -205t61.5 -158t92 -115.5
t109.5 -80.5t120 -49t118 -26t108 -7z" />
    <glyph glyph-name="Scaron" unicode="&#x160;" horiz-adv-x="911" 
d="M679 1767h-28l-223 -275l-223 275h-29l215 -320h73zM402 717q14 -5 51 -17.5t57 -19.5t56.5 -21.5t58 -26t52.5 -31t50 -37.5t41 -44t34 -53.5t20 -63t8 -74.5q0 -110 -62 -198.5t-160 -135.5t-210 -47q-62 0 -120.5 10.5t-98 25t-70 29t-44.5 25.5l-14 10v47
q67 -52 148 -83.5t199 -31.5q85 0 166.5 37t138.5 112t57 170q0 43 -9.5 80t-22.5 63t-38.5 50t-46.5 39t-58.5 32t-60.5 25.5t-67.5 24t-66.5 23.5q-138 52 -190 84q-137 85 -141 239v25q3 73 28.5 132.5t65 97.5t91 63.5t102 36t102.5 10.5q72 0 144 -19t108 -38l35 -19
l2 -42q-5 3 -13.5 9t-37 20.5t-60 25.5t-80 20t-97.5 9q-135 0 -226.5 -83t-91.5 -216q0 -40 8 -73t26.5 -58.5t39.5 -45t55.5 -37.5t64.5 -30.5t77 -29.5z" />
    <glyph glyph-name="scaron" unicode="&#x161;" horiz-adv-x="931" 
d="M700 1767h-29l-223 -275l-223 275h-28l215 -320h73zM422 717q14 -5 51 -17.5t57 -19.5t56.5 -21.5t58 -26t53 -31t50.5 -37.5t41 -44t34 -53.5t20 -63t8 -74.5q0 -110 -62 -198.5t-160.5 -135.5t-210.5 -47q-62 0 -120.5 10.5t-97.5 25t-69.5 29t-44.5 25.5l-14 10v47
q67 -52 147.5 -83.5t198.5 -31.5q85 0 166.5 37t138.5 112t57 170q0 43 -9.5 80t-22.5 63t-38.5 50t-46.5 39t-58.5 32t-60.5 25.5t-67.5 24t-66.5 23.5q-137 51 -190 84q-136 85 -140 239v25q3 73 28.5 132.5t65 97.5t91 63.5t102 36t102.5 10.5q72 0 143.5 -19t107.5 -38
l35 -19l2 -42q-5 3 -13.5 9t-37 20.5t-60 25.5t-80 20t-97.5 9q-135 0 -226 -83t-91 -216q0 -48 13.5 -86.5t34 -64.5t58.5 -49.5t73 -38.5t91 -35z" />
    <glyph glyph-name="Ydieresis" unicode="&#x178;" horiz-adv-x="1028" 
d="M676 1452l-75 75l75 75l76 -75zM338 1452l-75 75l75 75l76 -75zM921 1285h40l-411 -686v-601h-74v582l-408 705h89l374 -652z" />
    <glyph glyph-name="Zcaron" unicode="&#x17d;" horiz-adv-x="1081" 
d="M764 1753h-29l-223 -275l-223 275h-28l215 -320h73zM223 32h785v-34h-890l734 1253h-784v34h889z" />
    <glyph glyph-name="zcaron" unicode="&#x17e;" horiz-adv-x="1081" 
d="M764 1753h-29l-223 -275l-223 275h-28l215 -320h73zM223 32h785v-34h-890l734 1253h-784v34h889z" />
    <glyph glyph-name="circumflex" unicode="&#x2c6;" horiz-adv-x="694" 
d="M599 1304h-28l-223 275l-223 -275h-29l215 320h73z" />
    <glyph glyph-name="tilde" unicode="&#x2dc;" horiz-adv-x="512" 
d="M303 298q0 -73 -43 -124t-129 -51q-41 0 -79.5 19t-63.5 41.5t-59 41.5t-67 19q-73 0 -110.5 -38t-37.5 -83h-17q0 73 44 124t130 51q41 0 81 -19t67 -41t62 -41t68 -19q65 0 101 34.5t36 85.5h17z" />
    <glyph glyph-name="endash" unicode="&#x2013;" horiz-adv-x="1339" 
d="M98 625v34h1145v-34h-1145z" />
    <glyph glyph-name="emdash" unicode="&#x2014;" horiz-adv-x="1544" 
d="M98 625v34h1350v-34h-1350z" />
    <glyph glyph-name="quoteleft" unicode="&#x2018;" horiz-adv-x="452" 
d="M340 1355h28l-215 -320h-73z" />
    <glyph glyph-name="quoteright" unicode="&#x2019;" horiz-adv-x="452" 
d="M108 1035h-28l215 320h73z" />
    <glyph glyph-name="quotedblleft" unicode="&#x201c;" horiz-adv-x="696" 
d="M585 1355h28l-215 -320h-73zM340 1355h28l-215 -320h-73z" />
    <glyph glyph-name="quotedblright" unicode="&#x201d;" horiz-adv-x="696" 
d="M108 1035h-28l215 320h73zM353 1035h-28l215 320h73z" />
    <glyph glyph-name="dagger" unicode="&#x2020;" horiz-adv-x="1081" 
d="M1020 784v-34h-961v34h961zM557 -328h-34v1575h34v-1575z" />
    <glyph glyph-name="daggerdbl" unicode="&#x2021;" horiz-adv-x="1087" 
d="M59 135v34h961v-34h-961zM1020 784v-34h-961v34h961zM557 -328h-34v1575h34v-1575z" />
    <glyph glyph-name="bullet" unicode="&#x2022;" horiz-adv-x="573" 
d="M288 414l-198 198l198 198l198 -198z" />
    <glyph glyph-name="perthousand" unicode="&#x2030;" horiz-adv-x="2275" 
d="M1877 572q43 0 84.5 -8t86 -29t78 -54t55 -88.5t21.5 -126.5q0 -142 -95 -223.5t-230 -81.5t-230.5 81.5t-95.5 223.5q0 71 21.5 126.5t55 88.5t78.5 54t86.5 29t84.5 8zM1877 -5q28 0 58.5 6.5t66 25t63 47.5t46 78.5t18.5 113.5q0 70 -15.5 121.5t-38.5 80t-59 45
t-67 21t-72 4.5t-72.5 -4.5t-67 -21t-59 -45t-39 -80t-15.5 -121.5q0 -64 18.5 -113.5t46 -78.5t63.5 -47.5t66.5 -25t58.5 -6.5zM723 1000q0 -142 -95 -223.5t-230 -81.5t-230.5 81.5t-95.5 223.5q0 71 21.5 126.5t55 88.5t78.5 54t86.5 29t84.5 8t84.5 -8t86 -29t78 -54
t55 -88.5t21.5 -126.5zM145 1000q0 -64 18.5 -113.5t46 -78.5t63.5 -47.5t66.5 -25t58.5 -6.5t58.5 6.5t66 25t63 47.5t46 78.5t18.5 113.5q0 79 -22 135t-60.5 84.5t-79.5 40.5t-90 12t-90 -12t-80 -40.5t-61 -84.5t-22 -135zM1119 572q43 0 84.5 -8t86.5 -29t78.5 -54
t55 -88.5t21.5 -126.5q0 -142 -95.5 -223.5t-230.5 -81.5t-230.5 81.5t-95.5 223.5q0 71 21.5 126.5t55 88.5t78.5 54t86.5 29t84.5 8zM1119 -5q28 0 58.5 6.5t66 25t63 47.5t46 78.5t18.5 113.5q0 70 -15.5 121.5t-38.5 80t-59 45t-67 21t-72 4.5t-72.5 -4.5t-67 -21
t-59 -45t-39 -80t-15.5 -121.5q0 -64 18.5 -113.5t46 -78.5t63.5 -47.5t66.5 -25t58.5 -6.5zM1142 1310h40l-808 -1349h-40z" />
    <glyph glyph-name="Euro" unicode="&#x20ac;" horiz-adv-x="1296" 
d="M1223 116v-46q-6 -4 -16.5 -11.5t-48 -26t-80 -33t-110 -26t-139.5 -11.5q-59 0 -119.5 8.5t-129 30.5t-130 55t-119 87t-98.5 122t-66 163.5t-25 208.5q0 138 38.5 251.5t104 191t156 130t192 76.5t214.5 24q65 0 128 -8.5t106 -21t76.5 -25t49.5 -21.5l16 -8v-45
q-5 4 -15.5 10.5t-47 22.5t-77 28.5t-104.5 23t-132 10.5q-47 0 -98 -7t-114 -27t-120.5 -50t-112.5 -81t-95.5 -115t-65.5 -156.5t-25 -202.5q0 -112 23 -205t61.5 -158t92 -115.5t109.5 -80.5t120 -49t117.5 -26t107.5 -7q67 0 130 12.5t105.5 30t76 35t49.5 30.5zM70 487
v34h1063v-34h-1063zM70 760v34h1063v-34h-1063z" />
    <glyph glyph-name="trademark" unicode="&#x2122;" horiz-adv-x="1437" 
d="M74 1251v34h479v-34h-199v-609h-81v609h-199zM1350 642h-81l-58 493l-258 -488h-8l-251 483l-66 -489h-34l87 644h24l271 -522l276 522h23zM945 647h8h-8z" />
    </font>
</defs>
</svg>
