<?xml version="1.0" standalone="no"?>
<!DOCTYPE svg PUBLIC "-//W3C//DTD SVG 1.1//EN" "http://www.w3.org/Graphics/SVG/1.1/DTD/svg11.dtd" >
<svg xmlns="http://www.w3.org/2000/svg" xmlns:xlink="http://www.w3.org/1999/xlink" version="1.1">
<metadata>
Created by FontForge 20170731 at Fri Apr 28 06:26:10 2023
 By Aleksey,,,
Copyright (c) 2017, Aaron Amar
http://be.net/aaronamar
</metadata>
<defs>
<font id="Alta_caption" horiz-adv-x="1622" >
  <font-face 
    font-family="Alta Caption"
    font-weight="400"
    font-variant="small-caps"
    font-stretch="normal"
    units-per-em="2048"
    panose-1="2 0 5 3 0 0 0 0 0 0"
    ascent="1638"
    descent="-410"
    x-height="1285"
    cap-height="1285"
    bbox="-355 -397 2215 1767"
    underline-thickness="102"
    underline-position="-307"
    unicode-range="U+0020-2122"
  />
<missing-glyph horiz-adv-x="1024" 
d="M102 0v1092h820v-1092h-820zM205 102h614v887h-614v-887z" />
    <glyph glyph-name=".notdef" horiz-adv-x="1024" 
d="M102 0v1092h820v-1092h-820zM205 102h614v887h-614v-887z" />
    <glyph glyph-name=".null" horiz-adv-x="0" 
 />
    <glyph glyph-name="nonmarkingreturn" horiz-adv-x="682" 
 />
    <glyph glyph-name="space" unicode=" " horiz-adv-x="552" 
 />
    <glyph glyph-name="exclam" unicode="!" horiz-adv-x="387" 
d="M193 155l94 -94l-94 -94l-95 94zM227 281h-69l-33 1029h135z" />
    <glyph glyph-name="quotedbl" unicode="&#x22;" horiz-adv-x="589" 
d="M212 1035h-69l-32 320h134zM446 1035h-70l-32 320h134z" />
    <glyph glyph-name="numbersign" unicode="#" horiz-adv-x="1077" 
d="M947 653h-172l-81 -265h172l-39 -125h-171l-82 -265h-72l81 265h-251l-81 -265h-73l82 265h-172l38 125h172l81 265h-171l38 125h171l81 265h73l-81 -265h251l81 265h73l-81 -265h171zM621 388l81 265h-250l-81 -265h250z" />
    <glyph glyph-name="dollar" unicode="$" horiz-adv-x="884" 
d="M424 730l48 -18q49 -17 80 -30.5t83.5 -46t85 -67.5t57.5 -90.5t25 -119.5q0 -99 -58 -180.5t-149 -125t-191 -43.5h-19l-26 -176h-71l27 182q-64 10 -120 32.5t-80 40.5l-24 17v69q125 -96 313 -96q80 0 141 20t102.5 74.5t41.5 140.5q0 51 -16 93t-38.5 68t-58 49
t-62.5 34t-65.5 26t-53.5 22q-10 5 -46 20t-57.5 25.5t-56.5 30.5t-57.5 43t-45.5 54t-34 71.5t-11 88.5q0 82 35.5 147t91 102t116 55.5t119.5 18.5q25 0 49 -3l29 192h70l-30 -204q38 -9 73.5 -23.5t52.5 -24.5l16 -10v-69q-11 8 -32 20t-88.5 32t-138.5 20
q-120 0 -185 -53t-65 -151q0 -93 55.5 -152t167.5 -105z" />
    <glyph glyph-name="percent" unicode="%" horiz-adv-x="1542" 
d="M736 1000q0 -142 -95.5 -223.5t-230.5 -81.5t-230.5 81.5t-95.5 223.5q0 71 21.5 126.5t55 88.5t78.5 54t86.5 29t84.5 8t84.5 -8t86.5 -29t78.5 -54t55 -88.5t21.5 -126.5zM196 1000q0 -55 14.5 -98t36.5 -68t52 -41.5t56.5 -22t54.5 -5.5t54.5 5.5t56.5 22t52 41.5
t36.5 68t14.5 98q0 124 -58.5 180.5t-155.5 56.5t-155.5 -56.5t-58.5 -180.5zM1131 572q43 0 84.5 -8t86.5 -29t78.5 -54t55 -88.5t21.5 -126.5q0 -142 -95.5 -223.5t-230.5 -81.5t-230.5 81.5t-95.5 223.5q0 71 21.5 126.5t55 88.5t78.5 54t86.5 29t84.5 8zM1131 30
q35 0 69 10.5t68.5 34.5t55.5 73.5t21 117.5q0 124 -58.5 180t-155.5 56t-155.5 -56t-58.5 -180q0 -68 21 -117.5t55.5 -73.5t68.5 -34.5t69 -10.5zM1131 1310h84l-808 -1349h-81z" />
    <glyph glyph-name="ampersand" unicode="&#x26;" horiz-adv-x="1300" 
d="M1217 -2h-185q-16 20 -58 74.5t-67 87.5q-192 -199 -420 -199q-184 0 -291.5 94.5t-107.5 228.5q0 63 23.5 121.5t57 101.5t88.5 87t100 72.5t109 64.5l-27 36t-26 34q-96 126 -96 255q0 117 82.5 193t231.5 76q133 0 214 -69t81 -168q0 -77 -31 -126.5t-98 -100.5
q-62 -47 -165 -106q45 -59 157 -203t163 -210q43 65 81 138t54 113l16 40h87q-7 -21 -20.5 -56t-62 -129.5t-104.5 -172.5q188 -244 214 -277zM631 1255q-79 0 -132.5 -43.5t-53.5 -118.5q0 -95 90 -212q5 -6 25 -32.5t35 -45.5q148 84 187 147q38 61 38 126
q0 76 -51.5 127.5t-137.5 51.5zM674 74q94 43 186 147q-4 6 -357 463q-72 -40 -108 -66q-175 -128 -175 -285q0 -60 23 -122q30 -84 100.5 -130t161.5 -46q87 0 169 39z" />
    <glyph glyph-name="quotesingle" unicode="'" horiz-adv-x="358" 
d="M212 1035h-69l-32 320h134z" />
    <glyph glyph-name="parenleft" unicode="(" horiz-adv-x="552" 
d="M247 543q0 -411 225 -817h-69q-132 132 -217.5 366.5t-85.5 450.5q0 213 84 450t218 373h69q-224 -411 -224 -823z" />
    <glyph glyph-name="parenright" unicode=")" horiz-adv-x="546" 
d="M305 543q0 -411 -225 -817h69q132 132 217 366.5t85 450.5q0 213 -83.5 450t-217.5 373h-69q224 -411 224 -823z" />
    <glyph glyph-name="asterisk" unicode="*" horiz-adv-x="811" 
d="M708 1089l-267 -137l267 -137l-34 -60l-252 163l14 -300h-68l15 300l-252 -163l-35 60l267 137l-267 137l35 59l252 -163l-15 300h68l-15 -300l253 163z" />
    <glyph glyph-name="plus" unicode="+" horiz-adv-x="1144" 
d="M102 607v69h397v436h147v-436h396v-69h-396v-435h-147v435h-397z" />
    <glyph glyph-name="comma" unicode="," horiz-adv-x="602" 
d="M100 -167l154 319h134l-218 -319h-70z" />
    <glyph glyph-name="hyphen" unicode="-" horiz-adv-x="1175" 
d="M119 607v69h940v-69h-940z" />
    <glyph glyph-name="period" unicode="." horiz-adv-x="491" 
d="M209 -33l-94 94l94 94l94 -94z" />
    <glyph glyph-name="slash" unicode="/" horiz-adv-x="1046" 
d="M881 1310h84l-808 -1349h-81z" />
    <glyph glyph-name="zero" unicode="0" horiz-adv-x="1110" 
d="M555 1310q72 0 137 -24t122.5 -76.5t99.5 -130t66.5 -191t24.5 -251.5q0 -156 -31.5 -278.5t-79 -195t-110.5 -120t-119 -64.5t-110 -17q-38 0 -77 8.5t-84 30.5t-85.5 55t-78.5 87t-65.5 121.5t-44 163.5t-16.5 209q0 138 24.5 251.5t66.5 191t100 130t123 76.5t137 24z
M555 32q35 0 63.5 5t61 21t57.5 42.5t48.5 72.5t39 108.5t25 153t9.5 202.5q0 604 -304 604t-304 -604q0 -112 9.5 -202.5t25 -153t39 -108.5t48.5 -72.5t57.5 -42.5t61 -21t63.5 -5z" />
    <glyph glyph-name="one" unicode="1" horiz-adv-x="663" 
d="M429 1318h104v-1320h-147v1226l-280 -115l-26 64l349 144v1z" />
    <glyph glyph-name="two" unicode="2" horiz-adv-x="997" 
d="M469 383q-144 -78 -203 -150.5t-66 -164.5h692v-70h-796v70h1q6 150 83 254.5t276 209.5q50 26 81 45t68.5 46.5t59.5 57t42 70t29 91.5t9 115q0 140 -82 211.5t-211 71.5q-101 0 -175.5 -23t-147.5 -79v70q5 4 14.5 11t42.5 24.5t69 31t94 24.5t119 11q84 0 158.5 -24
t134.5 -71t95.5 -126t35.5 -181q0 -61 -14 -115.5t-34 -96.5t-56 -83t-67 -69t-81 -61t-83.5 -52t-87.5 -48z" />
    <glyph glyph-name="three" unicode="3" horiz-adv-x="974" 
d="M565 682q322 -50 322 -337q0 -67 -17 -122.5t-45.5 -94t-69.5 -68t-83.5 -47t-93.5 -28t-95 -14.5t-91 -4q-160 0 -302 49v70q113 -50 308 -50q157 0 245.5 78t88.5 231q0 59 -12.5 105t-32 77t-54 52.5t-66 33t-82 17.5t-88.5 7.5t-98 1.5v70q182 0 285 81t103 230
q0 114 -58.5 165.5t-187.5 51.5q-83 0 -168 -20t-141 -45v70q56 27 159.5 45.5t181.5 18.5q185 0 276.5 -78.5t91.5 -216.5q0 -99 -71.5 -189.5t-204.5 -139.5z" />
    <glyph glyph-name="four" unicode="4" horiz-adv-x="1089" 
d="M1007 470v-70h-173v-402h-146v402h-600v64l692 854h54v-848h173zM183 470h505v624z" />
    <glyph glyph-name="five" unicode="5" horiz-adv-x="976" 
d="M369 781q103 0 193 -23.5t163 -71t115 -127t42 -182.5q0 -94 -34.5 -167.5t-87 -117t-121.5 -71.5t-131.5 -38.5t-124.5 -10.5q-83 0 -155 16.5t-102 32.5l-30 16v69q13 -7 36.5 -18t98.5 -29t152 -18q186 0 269 82.5t83 253.5q0 90 -29 156t-80.5 104t-115.5 56t-141 18
q-68 0 -125 -6.5t-80 -12.5l-23 -7v600h147h517v-69h-517v-438q36 3 81 3z" />
    <glyph glyph-name="six" unicode="6" horiz-adv-x="1103" 
d="M586 750q83 0 157.5 -23.5t136 -69t98 -123.5t36.5 -178q0 -91 -30.5 -162.5t-76.5 -114t-106 -70t-112.5 -37.5t-102.5 -10q-80 0 -147 18t-130.5 64.5t-107.5 118.5t-70.5 188t-26.5 266q0 103 23 202t70.5 186.5t115 153.5t162 104.5t205.5 38.5q122 0 185 -28v-70
q-79 29 -185 29q-136 0 -234 -90t-146 -238t-49 -337q27 54 71.5 92.5t94.5 56.5t91 25.5t78 7.5zM586 32q281 0 281 324q0 70 -12.5 124.5t-35 88.5t-49 57t-60.5 34.5t-62.5 15.5t-61.5 4q-300 0 -300 -311v-1q0 -27 4 -56t14 -68.5t31 -74.5t50.5 -66t78 -50t109.5 -21
h13z" />
    <glyph glyph-name="seven" unicode="7" horiz-adv-x="999" 
d="M90 1285h825l-646 -1287h-166l612 1218h-625v69z" />
    <glyph glyph-name="eight" unicode="8" horiz-adv-x="1034" 
d="M686 718q114 -43 187 -138.5t73 -233.5q0 -89 -30 -158.5t-75.5 -111t-105 -68.5t-112.5 -36.5t-105 -9.5t-105 9.5t-112.5 36.5t-105 68.5t-75.5 111t-30 158.5q0 138 73 233.5t187 138.5q-85 41 -139 114.5t-54 167.5q0 71 25.5 126.5t63.5 88.5t88.5 54.5t95.5 29
t88 7.5t88 -7.5t95 -29t88.5 -54.5t63.5 -88.5t25 -126.5q0 -95 -53.5 -168t-138.5 -114zM304 1000q0 -251 214 -251t214 251q0 110 -61 173.5t-153 63.5t-153 -63.5t-61 -173.5zM518 33q115 0 198 81.5t83 231.5q0 86 -20.5 150t-49.5 98t-70 54.5t-73 25.5t-68 5t-68 -5
t-73 -25.5t-70 -54.5t-49.5 -98t-20.5 -150q0 -150 83 -231.5t198 -81.5z" />
    <glyph glyph-name="nine" unicode="9" horiz-adv-x="1042" 
d="M513 1302q43 0 83.5 -7t83.5 -25.5t80 -47t70.5 -74.5t57 -105t37.5 -141.5t14 -181.5q0 -23 -2 -73q-5 -104 -30.5 -202t-74.5 -186t-115 -154t-159 -104.5t-200 -38.5q-117 0 -179 29v69q72 -27 179 -27q128 0 225.5 84t149.5 225t58 320q-26 -43 -65.5 -74.5t-80 -46
t-73 -20.5t-59.5 -6q-83 0 -156.5 23t-134 69t-95.5 123.5t-35 177.5q0 91 30 162.5t75 114t103.5 70t110.5 37.5t102 10zM513 584q127 0 196.5 72t69.5 239v1q0 36 -3.5 70.5t-19 86t-42 88.5t-78.5 64.5t-123 27.5q-61 0 -107.5 -15.5t-85.5 -50.5t-60 -100.5t-21 -158.5
q0 -83 18 -144.5t44.5 -95t65.5 -53.5t72.5 -25.5t73.5 -5.5z" />
    <glyph glyph-name="colon" unicode=":" horiz-adv-x="415" 
d="M209 -33l-94 94l94 94l94 -94zM209 542l-94 94l94 94l94 -94z" />
    <glyph glyph-name="semicolon" unicode=";" horiz-adv-x="485" 
d="M376 636l-94 -94l-94 94l94 94zM88 -167l154 319h134l-218 -319h-70z" />
    <glyph glyph-name="less" unicode="&#x3c;" horiz-adv-x="1206" 
d="M1100 1024v-77l-880 -429l880 -428v-77l-1002 446v118z" />
    <glyph glyph-name="equal" unicode="=" horiz-adv-x="1189" 
d="M125 468v69h940v-69h-940zM125 746v70h940v-70h-940z" />
    <glyph glyph-name="greater" unicode="&#x3e;" horiz-adv-x="1198" 
d="M100 1024v-77l881 -429l-881 -428v-77l1002 446v118z" />
    <glyph glyph-name="question" unicode="?" horiz-adv-x="753" 
d="M664 995q0 -67 -24 -122.5t-62 -93t-84 -70t-92 -60.5t-84 -55.5t-62 -62.5t-24 -76q0 -54 34.5 -79.5t112.5 -25.5q41 0 73.5 8t44.5 16l12 9v-70q-48 -32 -130 -32q-62 0 -108.5 18.5t-72.5 49t-38.5 65t-12.5 72.5q0 52 23 97t60.5 77t82 62t89.5 60.5t82.5 63
t60.5 78t23 98.5q0 102 -61.5 160t-169.5 58q-160 0 -255 -74v69l12 8q13 8 35.5 19t52 22t72 18.5t87.5 7.5q157 0 240 -87t83 -228zM233 61l94 94l95 -94l-95 -94z" />
    <glyph glyph-name="at" unicode="@" horiz-adv-x="1615" 
d="M809 1310q113 0 214.5 -24t192 -76.5t156 -130t104 -191t38.5 -251.5q0 -125 -28 -228.5t-88.5 -170.5t-144.5 -67q-152 0 -203 156q-54 -87 -134 -121.5t-156 -34.5q-29 0 -58.5 4t-67.5 17t-72 33t-67.5 55t-57.5 80.5t-39 113t-15 148.5q0 99 23 178t60.5 128.5t88 83
t101 47t104.5 13.5q164 0 261 -116v116h105v-511q0 -126 14 -197t40.5 -97t72.5 -26q52 0 89 34t56 93.5t27.5 125t8.5 143.5q0 110 -24.5 200.5t-64 151.5t-95 108t-111.5 73.5t-119.5 43t-113 22t-97.5 5.5t-97.5 -5.5t-113 -22t-119 -43t-111 -73.5t-95 -108t-64 -151.5
t-24.5 -200.5q0 -130 34 -234t92 -172t138.5 -114t169.5 -65.5t190 -19.5h8q222 0 359 92v-70q-5 -4 -15.5 -10t-45.5 -22t-74.5 -28t-102.5 -22t-129 -10q-85 0 -172.5 17t-186 64.5t-173 120t-124 195t-49.5 278.5q0 138 38.5 251.5t104 191t156 130t192 76.5t214.5 24z
M760 241q34 0 67.5 11t67.5 38.5t60 69.5t42.5 109.5t16.5 152.5q0 83 -18 150.5t-45 109.5t-62 70t-67.5 39.5t-61.5 11.5t-61 -11.5t-67 -39.5t-62.5 -70t-45 -109.5t-17.5 -150.5q0 -85 16.5 -152.5t42 -109.5t60 -69.5t67.5 -38.5t67 -11z" />
    <glyph glyph-name="A" unicode="A" horiz-adv-x="1368" 
d="M1117 -2l-207 483h-531l-215 -483h-76l584 1312h41l562 -1312h-158zM410 550h470l-230 539z" />
    <glyph glyph-name="B" unicode="B" horiz-adv-x="1079" 
d="M656 681q66 -11 120.5 -33.5t100.5 -60t72 -96.5t26 -135q0 -71 -25 -129.5t-62.5 -94.5t-90 -63t-98 -40t-97 -20.5t-76 -9t-45.5 -1.5h-352v1287q290 1 389 1q26 0 52.5 -1.5t69 -8t79.5 -17t77.5 -31.5t68.5 -49t46.5 -71.5t18.5 -96.5q0 -69 -23.5 -126t-64.5 -95.5
t-86.5 -64.5t-99.5 -44zM776 989q0 59 -16.5 100.5t-44 66t-72.5 38t-91 18t-112 4.5h-164v-505h112q388 0 388 278zM388 68q81 0 136.5 4t116 19.5t97 43.5t60 78t23.5 120q0 66 -17.5 118t-59 97t-120.5 69.5t-192 24.5h-156v-574h112z" />
    <glyph glyph-name="C" unicode="C" horiz-adv-x="1286" 
d="M1177 140v-70q-6 -4 -16.5 -11.5t-48.5 -26t-80 -33t-110 -26t-140 -11.5q-85 0 -170.5 17t-181 64.5t-167.5 120t-119.5 195t-47.5 278.5q0 138 38.5 251.5t104 191t156 130t192 76.5t214.5 24q65 0 128 -8.5t106 -21t76.5 -25t49.5 -21.5l16 -8v-70q-5 3 -15.5 9
t-47 20.5t-77 26t-104.5 20.5t-132 9q-48 0 -94 -5.5t-102.5 -22t-105 -43t-96.5 -73t-81.5 -108t-54 -152t-20.5 -200.5q0 -112 19 -203t50 -152.5t77 -108t93 -72.5t105.5 -42t106.5 -21t103 -5q67 0 130 11t105.5 26.5t76 31.5t49.5 27z" />
    <glyph glyph-name="D" unicode="D" horiz-adv-x="1427" 
d="M661 1285q44 0 85 -3t92.5 -11.5t97 -22.5t94.5 -38.5t89 -56.5t76.5 -79.5t61.5 -105.5t40 -135.5t15 -168.5q0 -131 -33.5 -238t-84 -174.5t-123 -118t-137 -75.5t-140.5 -39.5t-118.5 -17.5t-85.5 -3h-27h-434v1287h532zM561 68q600 0 600 596q0 104 -20.5 188
t-53 140.5t-81 98.5t-97.5 65.5t-110 37.5t-110 18t-106 4h-307v-1148h285z" />
    <glyph glyph-name="E" unicode="E" horiz-adv-x="899" 
d="M782 1216h-506v-511h451v-69h-451v-569h506v-69h-653v1287h6h647v-69z" />
    <glyph glyph-name="F" unicode="F" horiz-adv-x="886" 
d="M782 1216h-506v-511h451v-69h-451v-638h-147v1287h653v-69z" />
    <glyph glyph-name="G" unicode="G" horiz-adv-x="1337" 
d="M882 654h330v-584q-7 -4 -20 -11.5t-57 -26t-91 -33t-118.5 -26t-143.5 -11.5q-85 0 -170.5 17t-181 64.5t-167.5 120t-119.5 195t-47.5 278.5q0 138 38.5 251.5t104 191t156 130t192 76.5t214.5 24q104 0 198 -12t136 -24l42 -13v-70q-15 6 -44 14t-126.5 22t-205.5 14
q-52 0 -99.5 -5.5t-104.5 -22t-105 -43t-94.5 -73t-79 -108t-52 -152t-19.5 -200.5q0 -141 27.5 -247.5t75 -173.5t119 -109t151.5 -58.5t181 -16.5q133 0 264 43v509h-183v70z" />
    <glyph glyph-name="H" unicode="H" horiz-adv-x="1161" 
d="M878 1285h146v-1287h-146v638h-602v-638h-147v1287h147v-579h602v579z" />
    <glyph glyph-name="I" unicode="I" horiz-adv-x="413" 
d="M129 -2v1287h147v-1287h-147z" />
    <glyph glyph-name="J" unicode="J" horiz-adv-x="399" 
d="M116 1285h147v-1317q0 -154 -102 -259.5t-278 -105.5v70q60 0 102.5 15.5t67.5 42t39.5 70.5t19 90t4.5 113v1281z" />
    <glyph glyph-name="K" unicode="K" horiz-adv-x="1159" 
d="M129 -2v1287h147v-1287h-147zM459 716l612 -718h-193l-567 666l606 621h97z" />
    <glyph glyph-name="L" unicode="L" horiz-adv-x="892" 
d="M276 68h512v-70h-659v1287h147v-1217z" />
    <glyph glyph-name="M" unicode="M" horiz-adv-x="1714" 
d="M1459 1310l154 -1312h-148l-118 1009l-501 -974h-36l-510 981l-138 -1016h-70l178 1312h42l558 -1075l555 1075h34z" />
    <glyph glyph-name="N" unicode="N" horiz-adv-x="1384" 
d="M1246 1285v-1323h-41l-1006 1115v-1079h-70v1312h41l1007 -1114v1089h69z" />
    <glyph glyph-name="O" unicode="O" 
d="M801 1310q113 0 214.5 -24t192 -76.5t156 -130t104 -191t38.5 -251.5q0 -156 -49.5 -278.5t-124 -195t-173 -120t-186 -64.5t-172.5 -17t-172.5 17t-186 64.5t-173 120t-124 195t-49.5 278.5q0 138 38.5 251.5t104 191t156 130t192 76.5t214.5 24zM801 32q56 0 104 5
t106.5 21t105.5 42t93 72.5t77 108.5t50 153t19 203q0 110 -20.5 200.5t-54 152t-81.5 108t-96.5 73t-105.5 43t-103 22t-94 5.5t-94 -5.5t-102.5 -22t-105 -43t-96.5 -73t-81.5 -108t-54 -152t-20.5 -200.5q0 -112 19 -203t50 -153t77 -108.5t92.5 -72.5t105 -42t106.5 -21
t104 -5z" />
    <glyph glyph-name="P" unicode="P" horiz-adv-x="1034" 
d="M518 1285q32 0 67.5 -4.5t85 -15.5t93 -34.5t82.5 -57t61.5 -87.5t22.5 -122q0 -76 -25.5 -137.5t-64 -100.5t-91.5 -68t-100.5 -43.5t-99 -23.5t-78.5 -10.5t-48 -1.5h-147v-581h-147v1287h389zM388 649q193 0 290.5 64.5t97.5 227.5q0 82 -22 137t-67.5 84.5t-104 41.5
t-142.5 12h-164v-567h112z" />
    <glyph glyph-name="Q" unicode="Q" 
d="M1506 637q0 -377 -274 -554l274 -345h-185l-221 279q-144 -55 -299 -55q-85 0 -172.5 17t-186 64.5t-173 120t-124 195t-49.5 278.5q0 138 38.5 251.5t104 191t156 130t192 76.5t214.5 24t214.5 -24t192 -76.5t156 -130t104 -191t38.5 -251.5zM801 32q149 0 255 40
l-224 282h186l164 -208q174 148 174 491q0 110 -20.5 200.5t-54 152t-81.5 108t-96.5 73t-105.5 43t-103 22t-94 5.5t-94 -5.5t-102.5 -22t-105 -43t-96.5 -73t-81.5 -108t-54 -152t-20.5 -200.5q0 -112 19 -203t50 -153t77 -108.5t92.5 -72.5t105 -42t106.5 -21t104 -5z
" />
    <glyph glyph-name="R" unicode="R" horiz-adv-x="1116" 
d="M1030 -2h-185l-461 581h-108v-581h-147v1287h389q32 0 67.5 -4.5t85 -15.5t93 -34.5t82.5 -57t61.5 -87.5t22.5 -122q0 -74 -24.5 -135t-61.5 -100t-89 -68.5t-98.5 -44.5t-97.5 -24zM276 1216v-567h112q193 0 290.5 64.5t97.5 227.5q0 82 -22 137t-67.5 84.5t-104 41.5
t-142.5 12h-164z" />
    <glyph glyph-name="S" unicode="S" horiz-adv-x="954" 
d="M72 117q127 -99 346 -99q57 0 110.5 14.5t100.5 44t76 81.5t29 120q0 56 -19.5 103.5t-47.5 77.5t-68 56t-72 39t-69.5 27.5t-49.5 20.5q-18 9 -58.5 27t-64.5 30.5t-60 34.5t-58 46t-44 57t-32.5 77t-10.5 97q0 73 25 134t65 100.5t92 67t104 39.5t103 12q72 0 144 -19
t107 -38l36 -19v-70q-5 3 -13.5 8.5t-37 18.5t-59.5 23t-79.5 18.5t-97.5 8.5q-119 0 -197.5 -62t-78.5 -168q0 -70 31 -123.5t81.5 -89t133.5 -72.5q19 -9 63 -25t76.5 -30t76.5 -36.5t75.5 -51t61 -66t44.5 -89.5t15 -113q0 -110 -62 -198.5t-160.5 -135.5t-210.5 -47
q-62 0 -120.5 10.5t-97.5 25t-69.5 29t-44.5 25.5l-14 10v69z" />
    <glyph glyph-name="T" unicode="T" horiz-adv-x="1132" 
d="M1030 1285v-69h-397v-1218h-146v1218h-397v69h940z" />
    <glyph glyph-name="U" unicode="U" horiz-adv-x="1224" 
d="M1024 1285h70v-811q0 -253 -126 -382.5t-372 -129.5q-479 0 -479 512v811h146v-811q0 -39 2 -71t10 -80t22.5 -85t42 -77.5t64.5 -67t94.5 -44t128.5 -17.5q186 0 291.5 111t105.5 350v792z" />
    <glyph glyph-name="V" unicode="V" horiz-adv-x="1363" 
d="M1195 1285h76l-584 -1312h-41l-562 1312h158l467 -1091z" />
    <glyph glyph-name="W" unicode="W" horiz-adv-x="1914" 
d="M1747 1285h73l-403 -1312h-49l-426 1050l-415 -1050h-39l-402 1312h153l319 -1042l407 1028h34l424 -1044z" />
    <glyph glyph-name="X" unicode="X" horiz-adv-x="1097" 
d="M1007 -2h-171l-315 537l-322 -537h-81l363 606l-399 681h171l314 -537l322 537h81l-362 -606z" />
    <glyph glyph-name="Y" unicode="Y" horiz-adv-x="1161" 
d="M1074 1285l-432 -721v-566h-147v562l-415 725h169l364 -635l380 635h81z" />
    <glyph glyph-name="Z" unicode="Z" horiz-adv-x="1142" 
d="M318 68h720v-70h-932l713 1218h-721v69h933z" />
    <glyph glyph-name="bracketleft" unicode="[" horiz-adv-x="524" 
d="M440 1296h-164v-1501h164v-69h-311v1640h311v-70z" />
    <glyph glyph-name="backslash" unicode="\" horiz-adv-x="1048" 
d="M163 1310h-83l808 -1349h81z" />
    <glyph glyph-name="bracketright" unicode="]" horiz-adv-x="528" 
d="M84 1296h164v-1501h-164v-69h311v1640h-311v-70z" />
    <glyph glyph-name="asciicircum" unicode="^" horiz-adv-x="677" 
d="M561 1304h-70l-151 222l-152 -222h-69l154 320h134z" />
    <glyph glyph-name="underscore" unicode="_" horiz-adv-x="1320" 
d="M119 0v70h1083v-70h-1083z" />
    <glyph glyph-name="grave" unicode="`" horiz-adv-x="509" 
d="M323 1304l-219 320h135l153 -320h-69z" />
    <glyph glyph-name="a" unicode="a" horiz-adv-x="1368" 
d="M1117 -2l-207 483h-531l-215 -483h-76l584 1312h41l562 -1312h-158zM410 550h470l-230 539z" />
    <glyph glyph-name="b" unicode="b" horiz-adv-x="1079" 
d="M656 681q66 -11 120.5 -33.5t100.5 -60t72 -96.5t26 -135q0 -71 -25 -129.5t-62.5 -94.5t-90 -63t-98 -40t-97 -20.5t-76 -9t-45.5 -1.5h-352v1287q290 1 389 1q26 0 52.5 -1.5t69 -8t79.5 -17t77.5 -31.5t68.5 -49t46.5 -71.5t18.5 -96.5q0 -69 -23.5 -126t-64.5 -95.5
t-86.5 -64.5t-99.5 -44zM776 989q0 59 -16.5 100.5t-44 66t-72.5 38t-91 18t-112 4.5h-164v-505h112q388 0 388 278zM388 68q81 0 136.5 4t116 19.5t97 43.5t60 78t23.5 120q0 66 -17.5 118t-59 97t-120.5 69.5t-192 24.5h-156v-574h112z" />
    <glyph glyph-name="c" unicode="c" horiz-adv-x="1286" 
d="M1177 140v-70q-6 -4 -16.5 -11.5t-48.5 -26t-80 -33t-110 -26t-140 -11.5q-85 0 -170.5 17t-181 64.5t-167.5 120t-119.5 195t-47.5 278.5q0 138 38.5 251.5t104 191t156 130t192 76.5t214.5 24q65 0 128 -8.5t106 -21t76.5 -25t49.5 -21.5l16 -8v-70q-5 3 -15.5 9
t-47 20.5t-77 26t-104.5 20.5t-132 9q-48 0 -94 -5.5t-102.5 -22t-105 -43t-96.5 -73t-81.5 -108t-54 -152t-20.5 -200.5q0 -112 19 -203t50 -152.5t77 -108t93 -72.5t105.5 -42t106.5 -21t103 -5q67 0 130 11t105.5 26.5t76 31.5t49.5 27z" />
    <glyph glyph-name="d" unicode="d" horiz-adv-x="1427" 
d="M661 1285q44 0 85 -3t92.5 -11.5t97 -22.5t94.5 -38.5t89 -56.5t76.5 -79.5t61.5 -105.5t40 -135.5t15 -168.5q0 -131 -33.5 -238t-84 -174.5t-123 -118t-137 -75.5t-140.5 -39.5t-118.5 -17.5t-85.5 -3h-27h-434v1287h532zM561 68q600 0 600 596q0 104 -20.5 188
t-53 140.5t-81 98.5t-97.5 65.5t-110 37.5t-110 18t-106 4h-307v-1148h285z" />
    <glyph glyph-name="e" unicode="e" horiz-adv-x="899" 
d="M782 1216h-506v-511h451v-69h-451v-569h506v-69h-653v1287h6h647v-69z" />
    <glyph glyph-name="f" unicode="f" horiz-adv-x="886" 
d="M782 1216h-506v-511h451v-69h-451v-638h-147v1287h653v-69z" />
    <glyph glyph-name="g" unicode="g" horiz-adv-x="1337" 
d="M882 654h330v-584q-7 -4 -20 -11.5t-57 -26t-91 -33t-118.5 -26t-143.5 -11.5q-85 0 -170.5 17t-181 64.5t-167.5 120t-119.5 195t-47.5 278.5q0 138 38.5 251.5t104 191t156 130t192 76.5t214.5 24q104 0 198 -12t136 -24l42 -13v-70q-15 6 -44 14t-126.5 22t-205.5 14
q-52 0 -99.5 -5.5t-104.5 -22t-105 -43t-94.5 -73t-79 -108t-52 -152t-19.5 -200.5q0 -141 27.5 -247.5t75 -173.5t119 -109t151.5 -58.5t181 -16.5q133 0 264 43v509h-183v70z" />
    <glyph glyph-name="h" unicode="h" horiz-adv-x="1161" 
d="M878 1285h146v-1287h-146v638h-602v-638h-147v1287h147v-579h602v579z" />
    <glyph glyph-name="i" unicode="i" horiz-adv-x="413" 
d="M129 -2v1287h147v-1287h-147z" />
    <glyph glyph-name="j" unicode="j" horiz-adv-x="399" 
d="M116 1285h147v-1317q0 -154 -102 -259.5t-278 -105.5v70q60 0 102.5 15.5t67.5 42t39.5 70.5t19 90t4.5 113v1281z" />
    <glyph glyph-name="k" unicode="k" horiz-adv-x="1159" 
d="M129 -2v1287h147v-1287h-147zM459 716l612 -718h-193l-567 666l606 621h97z" />
    <glyph glyph-name="l" unicode="l" horiz-adv-x="892" 
d="M276 68h512v-70h-659v1287h147v-1217z" />
    <glyph glyph-name="m" unicode="m" horiz-adv-x="1714" 
d="M1459 1310l154 -1312h-148l-118 1009l-501 -974h-36l-510 981l-138 -1016h-70l178 1312h42l558 -1075l555 1075h34z" />
    <glyph glyph-name="n" unicode="n" horiz-adv-x="1384" 
d="M1246 1285v-1323h-41l-1006 1115v-1079h-70v1312h41l1007 -1114v1089h69z" />
    <glyph glyph-name="o" unicode="o" 
d="M801 1310q113 0 214.5 -24t192 -76.5t156 -130t104 -191t38.5 -251.5q0 -156 -49.5 -278.5t-124 -195t-173 -120t-186 -64.5t-172.5 -17t-172.5 17t-186 64.5t-173 120t-124 195t-49.5 278.5q0 138 38.5 251.5t104 191t156 130t192 76.5t214.5 24zM801 32q56 0 104 5
t106.5 21t105.5 42t93 72.5t77 108.5t50 153t19 203q0 110 -20.5 200.5t-54 152t-81.5 108t-96.5 73t-105.5 43t-103 22t-94 5.5t-94 -5.5t-102.5 -22t-105 -43t-96.5 -73t-81.5 -108t-54 -152t-20.5 -200.5q0 -112 19 -203t50 -153t77 -108.5t92.5 -72.5t105 -42t106.5 -21
t104 -5z" />
    <glyph glyph-name="p" unicode="p" horiz-adv-x="1034" 
d="M518 1285q32 0 67.5 -4.5t85 -15.5t93 -34.5t82.5 -57t61.5 -87.5t22.5 -122q0 -76 -25.5 -137.5t-64 -100.5t-91.5 -68t-100.5 -43.5t-99 -23.5t-78.5 -10.5t-48 -1.5h-147v-581h-147v1287h389zM388 649q193 0 290.5 64.5t97.5 227.5q0 82 -22 137t-67.5 84.5t-104 41.5
t-142.5 12h-164v-567h112z" />
    <glyph glyph-name="q" unicode="q" 
d="M1506 637q0 -377 -274 -554l274 -345h-185l-221 279q-144 -55 -299 -55q-85 0 -172.5 17t-186 64.5t-173 120t-124 195t-49.5 278.5q0 138 38.5 251.5t104 191t156 130t192 76.5t214.5 24t214.5 -24t192 -76.5t156 -130t104 -191t38.5 -251.5zM801 32q149 0 255 40
l-224 282h186l164 -208q174 148 174 491q0 110 -20.5 200.5t-54 152t-81.5 108t-96.5 73t-105.5 43t-103 22t-94 5.5t-94 -5.5t-102.5 -22t-105 -43t-96.5 -73t-81.5 -108t-54 -152t-20.5 -200.5q0 -112 19 -203t50 -153t77 -108.5t92.5 -72.5t105 -42t106.5 -21t104 -5z
" />
    <glyph glyph-name="r" unicode="r" horiz-adv-x="1116" 
d="M1030 -2h-185l-461 581h-108v-581h-147v1287h389q32 0 67.5 -4.5t85 -15.5t93 -34.5t82.5 -57t61.5 -87.5t22.5 -122q0 -74 -24.5 -135t-61.5 -100t-89 -68.5t-98.5 -44.5t-97.5 -24zM276 1216v-567h112q193 0 290.5 64.5t97.5 227.5q0 82 -22 137t-67.5 84.5t-104 41.5
t-142.5 12h-164z" />
    <glyph glyph-name="s" unicode="s" horiz-adv-x="974" 
d="M92 117q127 -99 347 -99q57 0 110 14.5t100.5 44t76 81.5t28.5 120q0 56 -19.5 103.5t-47.5 77.5t-68 56t-72 39t-69.5 27.5t-49.5 20.5q-18 9 -58.5 27t-64.5 30.5t-60 34.5t-58 46t-44 57t-32.5 77t-10.5 97q0 73 25 134t65 100.5t92 67t104 39.5t103 12q72 0 144 -19
t108 -38l36 -19v-70q-5 3 -13.5 8.5t-37 18.5t-59.5 23t-79.5 18.5t-97.5 8.5q-119 0 -198 -62t-79 -168q0 -102 60.5 -165.5t186.5 -119.5q18 -8 54.5 -22t65 -25t67 -30t68 -38.5t60 -49.5t50.5 -64t33 -81t13 -101q0 -110 -62 -198.5t-160 -135.5t-210 -47
q-62 0 -120.5 10.5t-98 25t-70 29t-44.5 25.5l-14 10v69z" />
    <glyph glyph-name="t" unicode="t" horiz-adv-x="1132" 
d="M1030 1285v-69h-397v-1218h-146v1218h-397v69h940z" />
    <glyph glyph-name="u" unicode="u" horiz-adv-x="1224" 
d="M1024 1285h70v-811q0 -253 -126 -382.5t-372 -129.5q-479 0 -479 512v811h146v-811q0 -39 2 -71t10 -80t22.5 -85t42 -77.5t64.5 -67t94.5 -44t128.5 -17.5q186 0 291.5 111t105.5 350v792z" />
    <glyph glyph-name="v" unicode="v" horiz-adv-x="1363" 
d="M1195 1285h76l-584 -1312h-41l-562 1312h158l467 -1091z" />
    <glyph glyph-name="w" unicode="w" horiz-adv-x="1914" 
d="M1747 1285h73l-403 -1312h-49l-426 1050l-415 -1050h-39l-402 1312h153l319 -1042l407 1028h34l424 -1044z" />
    <glyph glyph-name="x" unicode="x" horiz-adv-x="1097" 
d="M1007 -2h-171l-315 537l-322 -537h-81l363 606l-399 681h171l314 -537l322 537h81l-362 -606z" />
    <glyph glyph-name="y" unicode="y" horiz-adv-x="1161" 
d="M1074 1285l-432 -721v-566h-147v562l-415 725h169l364 -635l380 635h81z" />
    <glyph glyph-name="z" unicode="z" horiz-adv-x="1142" 
d="M318 68h720v-70h-932l713 1218h-721v69h933z" />
    <glyph glyph-name="braceleft" unicode="{" horiz-adv-x="692" 
d="M374 812q0 -83 -39.5 -155t-110.5 -111q71 -39 110.5 -111t39.5 -155v-154q0 -66 4.5 -112.5t19 -90.5t40 -70.5t68 -42t102.5 -15.5v-69q-176 0 -278 105.5t-102 259.5v171v51q0 44 -2 69.5t-10 53.5t-23.5 42t-43.5 23.5t-69 9.5v70q41 0 69 9.5t43.5 23.5t23.5 41.5
t10 53t2 69.5v52v171q0 154 102 259.5t278 105.5v-70q-60 0 -102.5 -15.5t-68 -42t-40 -70.5t-19 -90.5t-4.5 -112.5v-153z" />
    <glyph glyph-name="bar" unicode="|" horiz-adv-x="335" 
d="M201 -343h-70v1943h70v-1943z" />
    <glyph glyph-name="braceright" unicode="}" horiz-adv-x="692" 
d="M317 812q0 -83 39.5 -155t110.5 -111q-71 -39 -110.5 -111t-39.5 -155v-154q0 -67 -4.5 -113t-19 -90t-39.5 -70.5t-67.5 -42t-102.5 -15.5v-69q176 0 278 105.5t102 259.5v171v51q0 44 2 69.5t10 53.5t23.5 42t43.5 23.5t69 9.5v70q-41 0 -69 9.5t-43.5 23.5t-23.5 41.5
t-10 53t-2 69.5v52v171q0 154 -102 259.5t-278 105.5v-70q60 0 102.5 -15.5t67.5 -42t39.5 -70.5t19 -90t4.5 -113v-153z" />
    <glyph glyph-name="asciitilde" unicode="~" horiz-adv-x="985" 
d="M852 1526q0 -69 -60.5 -122t-149.5 -53q-52 0 -108.5 23.5t-108.5 47t-93 23.5q-59 0 -90 -30t-31 -64h-70q0 68 61 121.5t150 53.5q52 0 108.5 -23t108.5 -46.5t93 -23.5q59 0 90 29.5t31 63.5h69z" />
    <glyph glyph-name="exclamdown" unicode="&#xa1;" horiz-adv-x="378" 
d="M190 1122l-94 94l94 94l95 -94zM156 995h69l33 -1028h-135z" />
    <glyph glyph-name="cent" unicode="&#xa2;" horiz-adv-x="1050" 
d="M885 1310h84l-808 -1349h-81zM161 637q0 114 42 202t112.5 140t156 78t179.5 26q69 0 131 -14t90 -28l28 -14v-70q-10 6 -29 15.5t-84 25t-136 15.5q-58 0 -114.5 -20t-109.5 -61.5t-86 -118t-33 -176.5q0 -103 30 -179t81 -118t109 -61.5t123 -19.5q70 0 132 18t89 36
l28 18v-70q-4 -3 -11 -7.5t-32 -17t-53 -22t-73 -17t-93 -7.5q-57 0 -115.5 11.5t-125.5 42.5t-117.5 79t-84.5 129.5t-34 184.5z" />
    <glyph glyph-name="sterling" unicode="&#xa3;" horiz-adv-x="1007" 
d="M649 1216q-120 0 -185 -53t-65 -151v-336h276v-69h-276v-308q0 -67 -26 -128t-74 -103h609v-70h-804v70q51 0 82 12t45 41t18 59t4 85q0 8 -0.5 25.5t-0.5 26.5v290h-148v69h148v287q0 66 27 121.5t70 92t96.5 61.5t105 36t97.5 11q65 0 130 -18t98 -36l32 -18v-70
q-4 3 -11.5 8t-33.5 17.5t-54 22t-71.5 17.5t-88.5 8z" />
    <glyph glyph-name="yen" unicode="&#xa5;" horiz-adv-x="1165" 
d="M1080 1285l-432 -721v-566h-146v562l-416 725h169l364 -635l380 635h81zM114 317v34h940v-34h-940zM114 481v34h940v-34h-940z" />
    <glyph glyph-name="brokenbar" unicode="&#xa6;" horiz-adv-x="335" 
d="M201 -343h-70v1943h70v-1943z" />
    <glyph glyph-name="section" unicode="&#xa7;" horiz-adv-x="915" 
d="M815 568q0 -114 -75 -203q75 -87 75 -201q0 -99 -58 -180.5t-149 -125.5t-191 -44q-56 0 -109 10t-88.5 24t-62.5 28t-40 24l-13 10v70q125 -96 313 -96q80 0 141 20t102.5 74.5t41.5 140.5q0 51 -16 93t-38.5 68t-58 48.5t-62.5 34t-65 26t-54 21.5q-11 5 -40 17.5
t-48.5 21t-50 25.5t-51.5 33t-45 41t-38.5 52.5t-24.5 64.5t-10 79q0 120 77 204q-77 80 -77 200q0 66 23.5 121.5t61.5 92t86.5 61.5t97 36t94.5 11q65 0 130 -18t97 -36l33 -18v-70q-4 3 -12 8t-34 17.5t-54 22t-71.5 17.5t-88.5 8q-119 0 -184 -53t-65 -151
q0 -94 55 -152.5t167 -104.5l48 -18q49 -17 80 -30.5t83.5 -46t85 -67.5t57.5 -90.5t25 -119.5zM436 536q6 -3 39.5 -14.5t62.5 -23t70 -33.5t74 -47q20 45 20 104q0 51 -16 93t-38.5 68t-58 49t-62.5 34t-65.5 26t-53.5 22q-9 4 -45.5 19.5t-66.5 30.5t-57 33
q-25 -43 -25 -104q0 -94 55 -152.5t167 -104.5z" />
    <glyph glyph-name="dieresis" unicode="&#xa8;" horiz-adv-x="796" 
d="M568 1352l-95 94l95 94l94 -94zM229 1352l-94 94l94 94l95 -94z" />
    <glyph glyph-name="copyright" unicode="&#xa9;" horiz-adv-x="1654" 
d="M355 637q0 92 27.5 167t74.5 126t110 86t132.5 51t144.5 16q69 0 131.5 -14t90.5 -28l28 -14v-70q-10 6 -29.5 15.5t-84.5 25t-136 15.5q-45 0 -90.5 -11.5t-91.5 -40t-81 -70.5t-57 -107.5t-22 -146.5q0 -103 30 -179t80.5 -118t108.5 -61.5t123 -19.5q70 0 132.5 18
t89.5 36l28 18v-70q-4 -3 -11 -7.5t-32 -17t-53 -22t-73 -17t-93 -7.5q-57 0 -115.5 11.5t-125.5 42.5t-117.5 79t-84.5 129.5t-34 184.5zM828 1310q147 0 277.5 -46t230.5 -130t158.5 -213t58.5 -285t-58.5 -285t-158.5 -213t-230.5 -130t-277.5 -46q-117 0 -225 28.5
t-199 86t-158.5 137.5t-105.5 188.5t-38 233.5t38 233.5t105.5 188.5t158.5 137.5t199 86t225 28.5zM828 33q130 0 240 40.5t191 116t127 190t46 256.5t-46 257t-127 190.5t-191 116.5t-240 41t-240 -41t-191 -116.5t-127 -190.5t-46 -257t46 -256.5t127 -190t191 -116
t240 -40.5z" />
    <glyph glyph-name="ordfeminine" unicode="&#xaa;" horiz-adv-x="1368" 
d="M857 787l-82 193h-213l-86 -193h-30l233 525h17l224 -525h-63zM574 1008h189l-93 215z" />
    <glyph glyph-name="uni00AD" unicode="&#xad;" horiz-adv-x="847" 
d="M119 607v69h612v-69h-612z" />
    <glyph glyph-name="registered" unicode="&#xae;" horiz-adv-x="1654" 
d="M1127 849q0 -55 -20.5 -99t-57 -73t-74.5 -47.5t-84 -30.5l321 -402h-187l-301 380h-94v-380h-146v892h314q26 0 62.5 -6t84.5 -22.5t87.5 -42t67 -70t27.5 -99.5zM630 1019v-373h78q68 0 113.5 7t84 26.5t56.5 57.5t18 96q0 109 -57.5 147.5t-177.5 38.5h-115zM828 1310
q147 0 277.5 -46t230.5 -130t158.5 -213t58.5 -285t-58.5 -285t-158.5 -213t-230.5 -130t-277.5 -46q-117 0 -225 28.5t-199 86t-158.5 137.5t-105.5 188.5t-38 233.5t38 233.5t105.5 188.5t158.5 137.5t199 86t225 28.5zM828 33q130 0 240 40.5t191 116t127 190t46 256.5
t-46 257t-127 190.5t-191 116.5t-240 41t-240 -41t-191 -116.5t-127 -190.5t-46 -257t46 -256.5t127 -190t191 -116t240 -40.5z" />
    <glyph glyph-name="macron" unicode="&#xaf;" horiz-adv-x="909" 
d="M147 1467v70h613v-70h-613z" />
    <glyph glyph-name="degree" unicode="&#xb0;" horiz-adv-x="536" 
d="M268 1595q55 0 93 -31t38 -92q0 -46 -24 -76t-51.5 -39t-55.5 -9t-55.5 9t-51.5 39t-24 76q0 61 38 92t93 31zM268 1418q29 0 42.5 16.5t13.5 37.5q0 22 -15 37.5t-41 15.5t-41 -15.5t-15 -37.5q0 -21 13.5 -37.5t42.5 -16.5z" />
    <glyph glyph-name="plusminus" unicode="&#xb1;" horiz-adv-x="1155" 
d="M109 0v70h940v-70h-940zM109 607v69h940v-69h-940zM505 172v940h147v-940h-147zM505 172v940h147v-940h-147z" />
    <glyph glyph-name="uni00B2" unicode="&#xb2;" horiz-adv-x="997" 
d="M463 936q-58 -31 -81.5 -60t-26.5 -66h277v-28h-318v28q2 60 33 102t111 84q61 32 88 65.5t27 104.5q0 56 -32.5 84.5t-84.5 28.5q-76 0 -129 -41v28q6 5 16.5 11.5t45.5 18t74 11.5q71 0 120 -41t49 -120q0 -42 -13.5 -75t-42.5 -59t-51.5 -40.5t-61.5 -35.5z" />
    <glyph glyph-name="uni00B3" unicode="&#xb3;" horiz-adv-x="974" 
d="M509 1053q128 -19 128 -135q0 -46 -18.5 -77.5t-50.5 -46.5t-63 -21t-66 -6q-57 0 -120 20v28q44 -20 123 -20q63 0 98.5 31t35.5 92q0 33 -10 55.5t-24 35t-39.5 18.5t-46 7.5t-54.5 1.5v28q73 0 114.5 32.5t41.5 91.5q0 46 -23.5 66.5t-75.5 20.5q-66 0 -123 -26v28
q22 11 63.5 18.5t72.5 7.5q74 0 110.5 -31.5t36.5 -86.5q0 -40 -28 -76.5t-82 -55.5z" />
    <glyph glyph-name="acute" unicode="&#xb4;" horiz-adv-x="514" 
d="M188 1304l219 320h-134l-154 -320h69z" />
    <glyph glyph-name="mu" unicode="&#xb5;" horiz-adv-x="1038" 
d="M839 856h70v-858h-70v104q-96 -140 -325 -140q-142 0 -232 58v-296h-147v1132h147v-550q1 -42 5.5 -74.5t20 -72t42 -65.5t75 -44t114.5 -18q147 0 223.5 79.5t76.5 267.5v477z" />
    <glyph glyph-name="paragraph" unicode="&#xb6;" horiz-adv-x="1021" 
d="M744 1285h147v-1287h-147v1218h-94v-1218h-69v581q-28 1 -59 4t-81.5 13.5t-95 26.5t-93 45.5t-83 68t-57 97.5t-22.5 130q0 68 22.5 122t61.5 87.5t82.5 57t93 34.5t85 15.5t67.5 4.5h242zM581 650v566h-1q-84 0 -142.5 -12t-104 -41.5t-67.5 -84.5t-22 -137
q0 -152 85 -218t252 -73z" />
    <glyph glyph-name="periodcentered" unicode="&#xb7;" horiz-adv-x="411" 
d="M207 582l-94 94l94 94l94 -94z" />
    <glyph glyph-name="cedilla" unicode="&#xb8;" horiz-adv-x="458" 
d="M288 -114q51 -34 51 -100q0 -67 -52 -102q-40 -28 -104 -28q-47 0 -66 14v64q20 -14 62 -14q30 0 49 18.5t19 47.5q0 33 -23 49.5t-49 16.5q-28 0 -58 -15v139h92v-61q40 -3 79 -29z" />
    <glyph glyph-name="uni00B9" unicode="&#xb9;" horiz-adv-x="663" 
d="M491 1315h41v-528h-58v490l-112 -46l-11 26l140 57v1z" />
    <glyph glyph-name="ordmasculine" unicode="&#xba;" 
d="M800 1307q120 0 201 -67.5t81 -201.5q0 -62 -19.5 -111.5t-49.5 -78t-69.5 -47.5t-74.5 -26t-69 -7t-69 7t-74.5 26t-69.5 47.5t-49.5 78t-19.5 111.5q0 134 81 201.5t201 67.5zM800 795q222 0 222 243q0 61 -16 106.5t-39 70.5t-55 40t-58 19.5t-54 4.5t-54 -4.5
t-58 -19.5t-55 -40t-39 -70.5t-16 -106.5q0 -243 222 -243z" />
    <glyph glyph-name="questiondown" unicode="&#xbf;" horiz-adv-x="757" 
d="M88 282q0 67 24 122t62 93t84 70.5t92.5 60t84.5 55t62 62.5t24 76q0 54 -35 80t-113 26q-41 0 -73.5 -8.5t-44.5 -16.5l-12 -8v70q49 31 131 31q118 0 174.5 -61t56.5 -144q0 -52 -23 -96.5t-60.5 -77t-82 -62.5t-89.5 -60t-82.5 -62.5t-60.5 -78t-23 -98.5
q0 -102 62 -160.5t170 -58.5q158 0 254 75v-70l-12 -8q-13 -8 -35.5 -18.5t-52 -21.5t-72 -18.5t-87.5 -7.5q-157 0 -240 87t-83 228zM519 1216l-94 -94l-94 94l94 94z" />
    <glyph glyph-name="Agrave" unicode="&#xc0;" horiz-adv-x="1368" 
d="M642 1433l-219 320h135l153 -320h-69zM1117 -2l-207 483h-531l-215 -483h-76l584 1312h41l562 -1312h-158zM410 550h470l-230 539z" />
    <glyph glyph-name="Aacute" unicode="&#xc1;" horiz-adv-x="1368" 
d="M757 1433l218 320h-134l-154 -320h70zM1117 -2l-207 483h-531l-215 -483h-76l584 1312h41l562 -1312h-158zM410 550h470l-230 539z" />
    <glyph glyph-name="Acircumflex" unicode="&#xc2;" horiz-adv-x="1368" 
d="M908 1433h-70l-151 222l-151 -222h-70l154 320h134zM1117 -2l-207 483h-531l-215 -483h-76l584 1312h41l562 -1312h-158zM410 550h470l-230 539z" />
    <glyph glyph-name="Atilde" unicode="&#xc3;" horiz-adv-x="1368" 
d="M1044 1609q0 -69 -61 -122.5t-150 -53.5q-64 0 -163.5 47t-146.5 47q-59 0 -89.5 -30t-30.5 -64h-70q0 69 61 122.5t150 53.5q64 0 163 -47t146 -47q59 0 90 30t31 64h70zM1117 -2l-207 483h-531l-215 -483h-76l584 1312h41l562 -1312h-158zM410 550h470l-230 539z" />
    <glyph glyph-name="Adieresis" unicode="&#xc4;" horiz-adv-x="1368" 
d="M860 1433l-94 94l94 95l94 -95zM522 1433l-94 94l94 95l94 -95zM1117 -2l-207 483h-531l-215 -483h-76l584 1312h41l562 -1312h-158zM410 550h470l-230 539z" />
    <glyph glyph-name="Aring" unicode="&#xc5;" horiz-adv-x="1368" 
d="M693 1679q55 0 93 -31t38 -92q0 -66 -41.5 -94.5t-89.5 -28.5t-89.5 28.5t-41.5 94.5q0 61 38 92t93 31zM693 1503q29 0 42.5 16t13.5 37q0 22 -15 38t-41 16t-41 -16t-15 -38q0 -21 13.5 -37t42.5 -16zM1117 -2l-207 483h-531l-215 -483h-76l584 1312h41l562 -1312h-158
zM410 550h470l-230 539z" />
    <glyph glyph-name="AE" unicode="&#xc6;" horiz-adv-x="1667" 
d="M1551 1216h-506v-510h451v-70h-451v-568h506v-70h-653v500h-430l-299 -500h-81l772 1287h691v-69zM510 567h388v648z" />
    <glyph glyph-name="Ccedilla" unicode="&#xc7;" horiz-adv-x="1286" 
d="M911 -117q51 -35 51 -101q0 -67 -52 -102q-40 -28 -105 -28q-47 0 -66 14v65q21 -15 62 -15q30 0 49.5 18.5t19.5 47.5q0 33 -23 49.5t-49 16.5q-29 0 -59 -15v139h93v-61q42 -3 79 -28zM1177 140v-70q-6 -4 -16.5 -11.5t-48.5 -26t-80 -33t-110 -26t-140 -11.5
q-85 0 -170.5 17t-181 64.5t-167.5 120t-119.5 195t-47.5 278.5q0 138 38.5 251.5t104 191t156 130t192 76.5t214.5 24q65 0 128 -8.5t106 -21t76.5 -25t49.5 -21.5l16 -8v-70q-5 3 -15.5 9t-47 20.5t-77 26t-104.5 20.5t-132 9q-48 0 -94 -5.5t-102.5 -22t-105 -43
t-96.5 -73t-81.5 -108t-54 -152t-20.5 -200.5q0 -112 19 -203t50 -152.5t77 -108t93 -72.5t105.5 -42t106.5 -21t103 -5q67 0 130 11t105.5 26.5t76 31.5t49.5 27z" />
    <glyph glyph-name="Egrave" unicode="&#xc8;" horiz-adv-x="899" 
d="M406 1433l-218 320h134l154 -320h-70zM782 1216h-506v-511h451v-69h-451v-569h506v-69h-653v1287h6h647v-69z" />
    <glyph glyph-name="Eacute" unicode="&#xc9;" horiz-adv-x="899" 
d="M505 1433l218 320h-134l-154 -320h70zM782 1216h-506v-511h451v-69h-451v-569h506v-69h-653v1287h6h647v-69z" />
    <glyph glyph-name="Ecircumflex" unicode="&#xca;" horiz-adv-x="899" 
d="M670 1433h-69l-152 222l-151 -222h-70l154 320h134zM782 1216h-506v-511h451v-69h-451v-569h506v-69h-653v1287h6h647v-69z" />
    <glyph glyph-name="Edieresis" unicode="&#xcb;" horiz-adv-x="899" 
d="M643 1433l-94 94l94 95l94 -95zM305 1433l-94 94l94 95l94 -95zM782 1216h-506v-511h451v-69h-451v-569h506v-69h-653v1287h6h647v-69z" />
    <glyph glyph-name="Igrave" unicode="&#xcc;" horiz-adv-x="413" 
d="M167 1433l-218 320h134l154 -320h-70zM129 -2v1287h147v-1287h-147z" />
    <glyph glyph-name="Iacute" unicode="&#xcd;" horiz-adv-x="413" 
d="M225 1433l218 320h-134l-154 -320h70zM129 -2v1287h147v-1287h-147z" />
    <glyph glyph-name="Icircumflex" unicode="&#xce;" horiz-adv-x="413" 
d="M423 1433h-69l-152 222l-151 -222h-70l154 320h134zM129 -2v1287h147v-1287h-147z" />
    <glyph glyph-name="Idieresis" unicode="&#xcf;" horiz-adv-x="413" 
d="M376 1433l-95 94l95 95l94 -95zM37 1433l-94 94l94 95l95 -95zM129 -2v1287h147v-1287h-147z" />
    <glyph glyph-name="Eth" unicode="&#xd0;" horiz-adv-x="1509" 
d="M86 607v69h612v-69h-612zM741 1285q44 0 85 -3t92.5 -11.5t97 -22.5t94.5 -38.5t89 -56.5t76.5 -79.5t61.5 -105.5t40 -135.5t15 -168.5q0 -131 -33.5 -238t-84 -174.5t-123 -118t-137 -75.5t-140.5 -39.5t-118.5 -17.5t-85.5 -3h-26h-435v1287h532zM641 68
q600 0 600 596q0 104 -20.5 188t-53 140.5t-81 98.5t-97.5 65.5t-110 37.5t-110 18t-106 4h-307v-1148h285z" />
    <glyph glyph-name="Ntilde" unicode="&#xd1;" horiz-adv-x="1384" 
d="M1054 1609q0 -69 -61 -122.5t-150 -53.5q-65 0 -164 47t-146 47q-59 0 -90 -30t-31 -64h-69q0 69 61 122.5t150 53.5q64 0 163 -47t146 -47q59 0 90 30t31 64h70zM1246 1285v-1323h-41l-1006 1115v-1079h-70v1312h41l1007 -1114v1089h69z" />
    <glyph glyph-name="Ograve" unicode="&#xd2;" 
d="M769 1433l-218 320h134l154 -320h-70zM801 1310q113 0 214.5 -24t192 -76.5t156 -130t104 -191t38.5 -251.5q0 -156 -49.5 -278.5t-124 -195t-173 -120t-186 -64.5t-172.5 -17t-172.5 17t-186 64.5t-173 120t-124 195t-49.5 278.5q0 138 38.5 251.5t104 191t156 130
t192 76.5t214.5 24zM801 32q56 0 104 5t106.5 21t105.5 42t93 72.5t77 108.5t50 153t19 203q0 110 -20.5 200.5t-54 152t-81.5 108t-96.5 73t-105.5 43t-103 22t-94 5.5t-94 -5.5t-102.5 -22t-105 -43t-96.5 -73t-81.5 -108t-54 -152t-20.5 -200.5q0 -112 19 -203t50 -153
t77 -108.5t92.5 -72.5t105 -42t106.5 -21t104 -5z" />
    <glyph glyph-name="Oacute" unicode="&#xd3;" 
d="M833 1433l219 320h-135l-153 -320h69zM801 1310q113 0 214.5 -24t192 -76.5t156 -130t104 -191t38.5 -251.5q0 -156 -49.5 -278.5t-124 -195t-173 -120t-186 -64.5t-172.5 -17t-172.5 17t-186 64.5t-173 120t-124 195t-49.5 278.5q0 138 38.5 251.5t104 191t156 130
t192 76.5t214.5 24zM801 32q56 0 104 5t106.5 21t105.5 42t93 72.5t77 108.5t50 153t19 203q0 110 -20.5 200.5t-54 152t-81.5 108t-96.5 73t-105.5 43t-103 22t-94 5.5t-94 -5.5t-102.5 -22t-105 -43t-96.5 -73t-81.5 -108t-54 -152t-20.5 -200.5q0 -112 19 -203t50 -153
t77 -108.5t92.5 -72.5t105 -42t106.5 -21t104 -5z" />
    <glyph glyph-name="Ocircumflex" unicode="&#xd4;" 
d="M1021 1433h-69l-152 222l-151 -222h-70l154 320h134zM801 1310q113 0 214.5 -24t192 -76.5t156 -130t104 -191t38.5 -251.5q0 -156 -49.5 -278.5t-124 -195t-173 -120t-186 -64.5t-172.5 -17t-172.5 17t-186 64.5t-173 120t-124 195t-49.5 278.5q0 138 38.5 251.5
t104 191t156 130t192 76.5t214.5 24zM801 32q56 0 104 5t106.5 21t105.5 42t93 72.5t77 108.5t50 153t19 203q0 110 -20.5 200.5t-54 152t-81.5 108t-96.5 73t-105.5 43t-103 22t-94 5.5t-94 -5.5t-102.5 -22t-105 -43t-96.5 -73t-81.5 -108t-54 -152t-20.5 -200.5
q0 -112 19 -203t50 -153t77 -108.5t92.5 -72.5t105 -42t106.5 -21t104 -5z" />
    <glyph glyph-name="Otilde" unicode="&#xd5;" 
d="M1149 1609q0 -69 -61 -122.5t-150 -53.5q-52 0 -108.5 23.5t-108.5 47t-93 23.5q-59 0 -89.5 -30t-30.5 -64h-70q0 69 61 122.5t150 53.5q52 0 108.5 -23.5t108 -47t92.5 -23.5q59 0 90 30t31 64h70zM801 1310q113 0 214.5 -24t192 -76.5t156 -130t104 -191t38.5 -251.5
q0 -156 -49.5 -278.5t-124 -195t-173 -120t-186 -64.5t-172.5 -17t-172.5 17t-186 64.5t-173 120t-124 195t-49.5 278.5q0 138 38.5 251.5t104 191t156 130t192 76.5t214.5 24zM801 32q56 0 104 5t106.5 21t105.5 42t93 72.5t77 108.5t50 153t19 203q0 110 -20.5 200.5
t-54 152t-81.5 108t-96.5 73t-105.5 43t-103 22t-94 5.5t-94 -5.5t-102.5 -22t-105 -43t-96.5 -73t-81.5 -108t-54 -152t-20.5 -200.5q0 -112 19 -203t50 -153t77 -108.5t92.5 -72.5t105 -42t106.5 -21t104 -5z" />
    <glyph glyph-name="Odieresis" unicode="&#xd6;" 
d="M969 1433l-94 94l94 95l95 -95zM631 1433l-94 94l94 95l94 -95zM801 1310q113 0 214.5 -24t192 -76.5t156 -130t104 -191t38.5 -251.5q0 -156 -49.5 -278.5t-124 -195t-173 -120t-186 -64.5t-172.5 -17t-172.5 17t-186 64.5t-173 120t-124 195t-49.5 278.5
q0 138 38.5 251.5t104 191t156 130t192 76.5t214.5 24zM801 32q56 0 104 5t106.5 21t105.5 42t93 72.5t77 108.5t50 153t19 203q0 110 -20.5 200.5t-54 152t-81.5 108t-96.5 73t-105.5 43t-103 22t-94 5.5t-94 -5.5t-102.5 -22t-105 -43t-96.5 -73t-81.5 -108t-54 -152
t-20.5 -200.5q0 -112 19 -203t50 -153t77 -108.5t92.5 -72.5t105 -42t106.5 -21t104 -5z" />
    <glyph glyph-name="multiply" unicode="&#xd7;" horiz-adv-x="962" 
d="M871 1112l-330 -439l319 -501h-174l-240 376l-283 -376h-87l330 438l-318 502h173l240 -377l283 377h87z" />
    <glyph glyph-name="Oslash" unicode="&#xd8;" 
d="M1185 1310h39l-808 -1349h-39zM801 1310q113 0 214.5 -24t192 -76.5t156 -130t104 -191t38.5 -251.5q0 -156 -49.5 -278.5t-124 -195t-173 -120t-186 -64.5t-172.5 -17t-172.5 17t-186 64.5t-173 120t-124 195t-49.5 278.5q0 138 38.5 251.5t104 191t156 130t192 76.5
t214.5 24zM801 -4q53 0 103.5 7t107.5 26t105 49t93 80.5t76.5 115.5t50.5 158t19 205q0 152 -39.5 269.5t-98 185.5t-137 111.5t-146 58t-134.5 14.5q-46 0 -93.5 -7t-103 -27t-105 -50t-96.5 -80.5t-81 -115t-54.5 -157t-20.5 -202.5q0 -112 19 -205t50.5 -158
t76.5 -115.5t93 -80.5t104.5 -49t107 -26t103.5 -7z" />
    <glyph glyph-name="Ugrave" unicode="&#xd9;" horiz-adv-x="1224" 
d="M573 1433l-219 320h135l153 -320h-69zM1024 1285h70v-811q0 -253 -126 -382.5t-372 -129.5q-479 0 -479 512v811h146v-811q0 -39 2 -71t10 -80t22.5 -85t42 -77.5t64.5 -67t94.5 -44t128.5 -17.5q186 0 291.5 111t105.5 350v792z" />
    <glyph glyph-name="Uacute" unicode="&#xda;" horiz-adv-x="1224" 
d="M651 1433l218 320h-134l-154 -320h70zM1024 1285h70v-811q0 -253 -126 -382.5t-372 -129.5q-479 0 -479 512v811h146v-811q0 -39 2 -71t10 -80t22.5 -85t42 -77.5t64.5 -67t94.5 -44t128.5 -17.5q186 0 291.5 111t105.5 350v792z" />
    <glyph glyph-name="Ucircumflex" unicode="&#xdb;" horiz-adv-x="1224" 
d="M837 1433h-70l-151 222l-151 -222h-70l154 320h134zM1024 1285h70v-811q0 -253 -126 -382.5t-372 -129.5q-479 0 -479 512v811h146v-811q0 -39 2 -71t10 -80t22.5 -85t42 -77.5t64.5 -67t94.5 -44t128.5 -17.5q186 0 291.5 111t105.5 350v792z" />
    <glyph glyph-name="Udieresis" unicode="&#xdc;" horiz-adv-x="1224" 
d="M789 1433l-94 94l94 95l94 -95zM451 1433l-94 94l94 95l94 -95zM1024 1285h70v-811q0 -253 -126 -382.5t-372 -129.5q-479 0 -479 512v811h146v-811q0 -39 2 -71t10 -80t22.5 -85t42 -77.5t64.5 -67t94.5 -44t128.5 -17.5q186 0 291.5 111t105.5 350v792z" />
    <glyph glyph-name="Yacute" unicode="&#xdd;" horiz-adv-x="1161" 
d="M629 1433l218 320h-134l-154 -320h70zM1074 1285l-432 -721v-566h-147v562l-415 725h169l364 -635l380 635h81z" />
    <glyph glyph-name="Thorn" unicode="&#xde;" horiz-adv-x="1044" 
d="M518 995q26 0 56 -3t71.5 -11.5t79 -23t76 -39.5t66.5 -57.5t45.5 -81t17.5 -106.5q0 -76 -25.5 -137.5t-64 -100.5t-91.5 -68t-100 -43.5t-99 -23t-79 -10t-48 -1.5h-147v-291h-147v1287h147v-290h242zM388 358q193 0 290.5 64.5t97.5 227.5q0 82 -22 137t-67.5 84.5
t-104 41.5t-142.5 12h-164v-567h112z" />
    <glyph glyph-name="germandbls" unicode="&#xdf;" horiz-adv-x="1103" 
d="M642 834q0 -28 19.5 -53t51 -46t69.5 -44t76.5 -52t70 -64.5t51 -88t19.5 -115.5q0 -179 -119 -290.5t-310 -111.5q-56 0 -104 12t-68 23t-33 21v69q65 -56 205 -56q129 0 216 70t87 191q0 62 -20 111t-52 79.5t-71 55.5t-78 47t-71 47t-52 62.5t-20 85.5q0 51 17 93.5
t42.5 70t55 57.5t55 56t42.5 65.5t17 85.5q0 93 -65.5 141t-167.5 48q-114 0 -173.5 -57.5t-59.5 -190.5v-1158h-147v1158q0 34 8.5 71t34.5 82.5t66 81t110 59.5t160 24q62 0 118.5 -15t105 -45.5t77.5 -84.5t29 -125q0 -58 -20 -103.5t-48 -75t-56 -56t-48 -60.5t-20 -75z
" />
    <glyph glyph-name="agrave" unicode="&#xe0;" horiz-adv-x="1368" 
d="M642 1433l-219 320h135l153 -320h-69zM1117 -2l-207 483h-531l-215 -483h-76l584 1312h41l562 -1312h-158zM410 550h470l-230 539z" />
    <glyph glyph-name="aacute" unicode="&#xe1;" horiz-adv-x="1368" 
d="M757 1433l218 320h-134l-154 -320h70zM1117 -2l-207 483h-531l-215 -483h-76l584 1312h41l562 -1312h-158zM410 550h470l-230 539z" />
    <glyph glyph-name="acircumflex" unicode="&#xe2;" horiz-adv-x="1368" 
d="M908 1433h-70l-151 222l-151 -222h-70l154 320h134zM1117 -2l-207 483h-531l-215 -483h-76l584 1312h41l562 -1312h-158zM410 550h470l-230 539z" />
    <glyph glyph-name="atilde" unicode="&#xe3;" horiz-adv-x="1368" 
d="M1044 1609q0 -69 -61 -122.5t-150 -53.5q-64 0 -163.5 47t-146.5 47q-59 0 -89.5 -30t-30.5 -64h-70q0 69 61 122.5t150 53.5q64 0 163 -47t146 -47q59 0 90 30t31 64h70zM1117 -2l-207 483h-531l-215 -483h-76l584 1312h41l562 -1312h-158zM410 550h470l-230 539z" />
    <glyph glyph-name="adieresis" unicode="&#xe4;" horiz-adv-x="1368" 
d="M860 1433l-94 94l94 95l94 -95zM522 1433l-94 94l94 95l94 -95zM1117 -2l-207 483h-531l-215 -483h-76l584 1312h41l562 -1312h-158zM410 550h470l-230 539z" />
    <glyph glyph-name="aring" unicode="&#xe5;" horiz-adv-x="1368" 
d="M693 1679q55 0 93 -31t38 -92q0 -66 -41.5 -94.5t-89.5 -28.5t-89.5 28.5t-41.5 94.5q0 61 38 92t93 31zM693 1503q29 0 42.5 16t13.5 37q0 22 -15 38t-41 16t-41 -16t-15 -38q0 -21 13.5 -37t42.5 -16zM1117 -2l-207 483h-531l-215 -483h-76l584 1312h41l562 -1312h-158
zM410 550h470l-230 539z" />
    <glyph glyph-name="ae" unicode="&#xe6;" horiz-adv-x="1667" 
d="M1551 1216h-506v-510h451v-70h-451v-568h506v-70h-653v500h-430l-299 -500h-81l772 1287h691v-69zM510 567h388v648z" />
    <glyph glyph-name="ccedilla" unicode="&#xe7;" horiz-adv-x="1286" 
d="M911 -117q51 -35 51 -101q0 -67 -52 -102q-40 -28 -105 -28q-47 0 -66 14v65q21 -15 62 -15q30 0 49.5 18.5t19.5 47.5q0 33 -23 49.5t-49 16.5q-29 0 -59 -15v139h93v-61q42 -3 79 -28zM1177 140v-70q-6 -4 -16.5 -11.5t-48.5 -26t-80 -33t-110 -26t-140 -11.5
q-85 0 -170.5 17t-181 64.5t-167.5 120t-119.5 195t-47.5 278.5q0 138 38.5 251.5t104 191t156 130t192 76.5t214.5 24q65 0 128 -8.5t106 -21t76.5 -25t49.5 -21.5l16 -8v-70q-5 3 -15.5 9t-47 20.5t-77 26t-104.5 20.5t-132 9q-48 0 -94 -5.5t-102.5 -22t-105 -43
t-96.5 -73t-81.5 -108t-54 -152t-20.5 -200.5q0 -112 19 -203t50 -152.5t77 -108t93 -72.5t105.5 -42t106.5 -21t103 -5q67 0 130 11t105.5 26.5t76 31.5t49.5 27z" />
    <glyph glyph-name="egrave" unicode="&#xe8;" horiz-adv-x="899" 
d="M406 1433l-218 320h134l154 -320h-70zM782 1216h-506v-511h451v-69h-451v-569h506v-69h-653v1287h6h647v-69z" />
    <glyph glyph-name="eacute" unicode="&#xe9;" horiz-adv-x="899" 
d="M505 1433l218 320h-134l-154 -320h70zM782 1216h-506v-511h451v-69h-451v-569h506v-69h-653v1287h6h647v-69z" />
    <glyph glyph-name="ecircumflex" unicode="&#xea;" horiz-adv-x="899" 
d="M670 1433h-69l-152 222l-151 -222h-70l154 320h134zM782 1216h-506v-511h451v-69h-451v-569h506v-69h-653v1287h6h647v-69z" />
    <glyph glyph-name="edieresis" unicode="&#xeb;" horiz-adv-x="899" 
d="M643 1433l-94 94l94 95l94 -95zM305 1433l-94 94l94 95l94 -95zM782 1216h-506v-511h451v-69h-451v-569h506v-69h-653v1287h6h647v-69z" />
    <glyph glyph-name="igrave" unicode="&#xec;" horiz-adv-x="413" 
d="M167 1433l-218 320h134l154 -320h-70zM129 -2v1287h147v-1287h-147z" />
    <glyph glyph-name="iacute" unicode="&#xed;" horiz-adv-x="413" 
d="M225 1433l218 320h-134l-154 -320h70zM129 -2v1287h147v-1287h-147z" />
    <glyph glyph-name="icircumflex" unicode="&#xee;" horiz-adv-x="413" 
d="M423 1433h-69l-152 222l-151 -222h-70l154 320h134zM129 -2v1287h147v-1287h-147z" />
    <glyph glyph-name="idieresis" unicode="&#xef;" horiz-adv-x="413" 
d="M376 1433l-95 94l95 95l94 -95zM37 1433l-94 94l94 95l95 -95zM129 -2v1287h147v-1287h-147z" />
    <glyph glyph-name="eth" unicode="&#xf0;" horiz-adv-x="1509" 
d="M86 607v69h612v-69h-612zM741 1285q44 0 85 -3t92.5 -11.5t97 -22.5t94.5 -38.5t89 -56.5t76.5 -79.5t61.5 -105.5t40 -135.5t15 -168.5q0 -131 -33.5 -238t-84 -174.5t-123 -118t-137 -75.5t-140.5 -39.5t-118.5 -17.5t-85.5 -3h-26h-435v1287h532zM641 68
q600 0 600 596q0 104 -20.5 188t-53 140.5t-81 98.5t-97.5 65.5t-110 37.5t-110 18t-106 4h-307v-1148h285z" />
    <glyph glyph-name="ntilde" unicode="&#xf1;" horiz-adv-x="1384" 
d="M1054 1609q0 -69 -61 -122.5t-150 -53.5q-65 0 -164 47t-146 47q-59 0 -90 -30t-31 -64h-69q0 69 61 122.5t150 53.5q64 0 163 -47t146 -47q59 0 90 30t31 64h70zM1246 1285v-1323h-41l-1006 1115v-1079h-70v1312h41l1007 -1114v1089h69z" />
    <glyph glyph-name="ograve" unicode="&#xf2;" 
d="M769 1433l-218 320h134l154 -320h-70zM801 1310q113 0 214.5 -24t192 -76.5t156 -130t104 -191t38.5 -251.5q0 -156 -49.5 -278.5t-124 -195t-173 -120t-186 -64.5t-172.5 -17t-172.5 17t-186 64.5t-173 120t-124 195t-49.5 278.5q0 138 38.5 251.5t104 191t156 130
t192 76.5t214.5 24zM801 32q56 0 104 5t106.5 21t105.5 42t93 72.5t77 108.5t50 153t19 203q0 110 -20.5 200.5t-54 152t-81.5 108t-96.5 73t-105.5 43t-103 22t-94 5.5t-94 -5.5t-102.5 -22t-105 -43t-96.5 -73t-81.5 -108t-54 -152t-20.5 -200.5q0 -112 19 -203t50 -153
t77 -108.5t92.5 -72.5t105 -42t106.5 -21t104 -5z" />
    <glyph glyph-name="oacute" unicode="&#xf3;" 
d="M833 1433l219 320h-135l-153 -320h69zM801 1310q113 0 214.5 -24t192 -76.5t156 -130t104 -191t38.5 -251.5q0 -156 -49.5 -278.5t-124 -195t-173 -120t-186 -64.5t-172.5 -17t-172.5 17t-186 64.5t-173 120t-124 195t-49.5 278.5q0 138 38.5 251.5t104 191t156 130
t192 76.5t214.5 24zM801 32q56 0 104 5t106.5 21t105.5 42t93 72.5t77 108.5t50 153t19 203q0 110 -20.5 200.5t-54 152t-81.5 108t-96.5 73t-105.5 43t-103 22t-94 5.5t-94 -5.5t-102.5 -22t-105 -43t-96.5 -73t-81.5 -108t-54 -152t-20.5 -200.5q0 -112 19 -203t50 -153
t77 -108.5t92.5 -72.5t105 -42t106.5 -21t104 -5z" />
    <glyph glyph-name="ocircumflex" unicode="&#xf4;" 
d="M1021 1433h-69l-152 222l-151 -222h-70l154 320h134zM801 1310q113 0 214.5 -24t192 -76.5t156 -130t104 -191t38.5 -251.5q0 -156 -49.5 -278.5t-124 -195t-173 -120t-186 -64.5t-172.5 -17t-172.5 17t-186 64.5t-173 120t-124 195t-49.5 278.5q0 138 38.5 251.5
t104 191t156 130t192 76.5t214.5 24zM801 32q56 0 104 5t106.5 21t105.5 42t93 72.5t77 108.5t50 153t19 203q0 110 -20.5 200.5t-54 152t-81.5 108t-96.5 73t-105.5 43t-103 22t-94 5.5t-94 -5.5t-102.5 -22t-105 -43t-96.5 -73t-81.5 -108t-54 -152t-20.5 -200.5
q0 -112 19 -203t50 -153t77 -108.5t92.5 -72.5t105 -42t106.5 -21t104 -5z" />
    <glyph glyph-name="otilde" unicode="&#xf5;" 
d="M1149 1609q0 -69 -61 -122.5t-150 -53.5q-52 0 -108.5 23.5t-108.5 47t-93 23.5q-59 0 -89.5 -30t-30.5 -64h-70q0 69 61 122.5t150 53.5q52 0 108.5 -23.5t108 -47t92.5 -23.5q59 0 90 30t31 64h70zM801 1310q113 0 214.5 -24t192 -76.5t156 -130t104 -191t38.5 -251.5
q0 -156 -49.5 -278.5t-124 -195t-173 -120t-186 -64.5t-172.5 -17t-172.5 17t-186 64.5t-173 120t-124 195t-49.5 278.5q0 138 38.5 251.5t104 191t156 130t192 76.5t214.5 24zM801 32q56 0 104 5t106.5 21t105.5 42t93 72.5t77 108.5t50 153t19 203q0 110 -20.5 200.5
t-54 152t-81.5 108t-96.5 73t-105.5 43t-103 22t-94 5.5t-94 -5.5t-102.5 -22t-105 -43t-96.5 -73t-81.5 -108t-54 -152t-20.5 -200.5q0 -112 19 -203t50 -153t77 -108.5t92.5 -72.5t105 -42t106.5 -21t104 -5z" />
    <glyph glyph-name="odieresis" unicode="&#xf6;" 
d="M969 1433l-94 94l94 95l95 -95zM631 1433l-94 94l94 95l94 -95zM801 1310q113 0 214.5 -24t192 -76.5t156 -130t104 -191t38.5 -251.5q0 -156 -49.5 -278.5t-124 -195t-173 -120t-186 -64.5t-172.5 -17t-172.5 17t-186 64.5t-173 120t-124 195t-49.5 278.5
q0 138 38.5 251.5t104 191t156 130t192 76.5t214.5 24zM801 32q56 0 104 5t106.5 21t105.5 42t93 72.5t77 108.5t50 153t19 203q0 110 -20.5 200.5t-54 152t-81.5 108t-96.5 73t-105.5 43t-103 22t-94 5.5t-94 -5.5t-102.5 -22t-105 -43t-96.5 -73t-81.5 -108t-54 -152
t-20.5 -200.5q0 -112 19 -203t50 -153t77 -108.5t92.5 -72.5t105 -42t106.5 -21t104 -5z" />
    <glyph glyph-name="divide" unicode="&#xf7;" horiz-adv-x="1157" 
d="M96 607v69h940v-69h-940zM566 219l-94 94l94 94l94 -94zM566 876l-94 94l94 94l94 -94z" />
    <glyph glyph-name="oslash" unicode="&#xf8;" 
d="M1185 1310h39l-808 -1349h-39zM801 1310q113 0 214.5 -24t192 -76.5t156 -130t104 -191t38.5 -251.5q0 -156 -49.5 -278.5t-124 -195t-173 -120t-186 -64.5t-172.5 -17t-172.5 17t-186 64.5t-173 120t-124 195t-49.5 278.5q0 138 38.5 251.5t104 191t156 130t192 76.5
t214.5 24zM801 -4q53 0 103.5 7t107.5 26t105 49t93 80.5t76.5 115.5t50.5 158t19 205q0 152 -39.5 269.5t-98 185.5t-137 111.5t-146 58t-134.5 14.5q-46 0 -93.5 -7t-103 -27t-105 -50t-96.5 -80.5t-81 -115t-54.5 -157t-20.5 -202.5q0 -112 19 -205t50.5 -158
t76.5 -115.5t93 -80.5t104.5 -49t107 -26t103.5 -7z" />
    <glyph glyph-name="ugrave" unicode="&#xf9;" horiz-adv-x="1224" 
d="M573 1433l-219 320h135l153 -320h-69zM1024 1285h70v-811q0 -253 -126 -382.5t-372 -129.5q-479 0 -479 512v811h146v-811q0 -39 2 -71t10 -80t22.5 -85t42 -77.5t64.5 -67t94.5 -44t128.5 -17.5q186 0 291.5 111t105.5 350v792z" />
    <glyph glyph-name="uacute" unicode="&#xfa;" horiz-adv-x="1224" 
d="M651 1433l218 320h-134l-154 -320h70zM1024 1285h70v-811q0 -253 -126 -382.5t-372 -129.5q-479 0 -479 512v811h146v-811q0 -39 2 -71t10 -80t22.5 -85t42 -77.5t64.5 -67t94.5 -44t128.5 -17.5q186 0 291.5 111t105.5 350v792z" />
    <glyph glyph-name="ucircumflex" unicode="&#xfb;" horiz-adv-x="1224" 
d="M837 1433h-70l-151 222l-151 -222h-70l154 320h134zM1024 1285h70v-811q0 -253 -126 -382.5t-372 -129.5q-479 0 -479 512v811h146v-811q0 -39 2 -71t10 -80t22.5 -85t42 -77.5t64.5 -67t94.5 -44t128.5 -17.5q186 0 291.5 111t105.5 350v792z" />
    <glyph glyph-name="udieresis" unicode="&#xfc;" horiz-adv-x="1224" 
d="M789 1433l-94 94l94 95l94 -95zM451 1433l-94 94l94 95l94 -95zM1024 1285h70v-811q0 -253 -126 -382.5t-372 -129.5q-479 0 -479 512v811h146v-811q0 -39 2 -71t10 -80t22.5 -85t42 -77.5t64.5 -67t94.5 -44t128.5 -17.5q186 0 291.5 111t105.5 350v792z" />
    <glyph glyph-name="yacute" unicode="&#xfd;" horiz-adv-x="1161" 
d="M629 1433l218 320h-134l-154 -320h70zM1074 1285l-432 -721v-566h-147v562l-415 725h169l364 -635l380 635h81z" />
    <glyph glyph-name="thorn" unicode="&#xfe;" horiz-adv-x="1044" 
d="M518 995q26 0 56 -3t71.5 -11.5t79 -23t76 -39.5t66.5 -57.5t45.5 -81t17.5 -106.5q0 -76 -25.5 -137.5t-64 -100.5t-91.5 -68t-100 -43.5t-99 -23t-79 -10t-48 -1.5h-147v-291h-147v1287h147v-290h242zM388 358q193 0 290.5 64.5t97.5 227.5q0 82 -22 137t-67.5 84.5
t-104 41.5t-142.5 12h-164v-567h112z" />
    <glyph glyph-name="ydieresis" unicode="&#xff;" horiz-adv-x="1161" 
d="M761 1433l-94 94l94 95l94 -95zM423 1433l-94 94l94 95l94 -95zM1074 1285l-432 -721v-566h-147v562l-415 725h169l364 -635l380 635h81z" />
    <glyph glyph-name="OE" unicode="&#x152;" horiz-adv-x="2129" 
d="M2012 1216h-506v-510h452v-70h-452v-568h506v-70h-652v196q-72 -84 -177 -138.5t-198 -74t-184 -19.5q-85 0 -172.5 17t-186 64.5t-173 120t-124 195t-49.5 278.5q0 138 38.5 251.5t104 191t156 130t192 76.5t214.5 24q170 0 316.5 -56.5t242.5 -169.5v201h652v-69z
M801 33q56 0 104 5t106.5 21t105.5 42t93 72.5t77 108.5t50 152.5t19 202.5q0 110 -20.5 200.5t-54 152t-81.5 108t-96.5 73t-105.5 43t-103 22t-94 5.5t-94 -5.5t-102.5 -22t-105 -43t-96.5 -73t-81.5 -108t-54 -152t-20.5 -200.5q0 -112 19 -202.5t50 -152.5t77 -108.5
t92.5 -72.5t105 -42t106.5 -21t104 -5z" />
    <glyph glyph-name="oe" unicode="&#x153;" horiz-adv-x="2129" 
d="M2012 1216h-506v-510h452v-70h-452v-568h506v-70h-652v196q-72 -84 -177 -138.5t-198 -74t-184 -19.5q-85 0 -172.5 17t-186 64.5t-173 120t-124 195t-49.5 278.5q0 138 38.5 251.5t104 191t156 130t192 76.5t214.5 24q170 0 316.5 -56.5t242.5 -169.5v201h652v-69z
M801 33q56 0 104 5t106.5 21t105.5 42t93 72.5t77 108.5t50 152.5t19 202.5q0 110 -20.5 200.5t-54 152t-81.5 108t-96.5 73t-105.5 43t-103 22t-94 5.5t-94 -5.5t-102.5 -22t-105 -43t-96.5 -73t-81.5 -108t-54 -152t-20.5 -200.5q0 -112 19 -202.5t50 -152.5t77 -108.5
t92.5 -72.5t105 -42t106.5 -21t104 -5z" />
    <glyph glyph-name="Scaron" unicode="&#x160;" horiz-adv-x="954" 
d="M669 1767h-70l-151 -222l-151 222h-70l154 -320h134zM72 117q127 -99 346 -99q57 0 110.5 14.5t100.5 44t76 81.5t29 120q0 56 -19.5 103.5t-47.5 77.5t-68 56t-72 39t-69.5 27.5t-49.5 20.5q-18 9 -58.5 27t-64.5 30.5t-60 34.5t-58 46t-44 57t-32.5 77t-10.5 97
q0 73 25 134t65 100.5t92 67t104 39.5t103 12q72 0 144 -19t107 -38l36 -19v-70q-5 3 -13.5 8.5t-37 18.5t-59.5 23t-79.5 18.5t-97.5 8.5q-119 0 -197.5 -62t-78.5 -168q0 -70 31 -123.5t81.5 -89t133.5 -72.5q19 -9 63 -25t76.5 -30t76.5 -36.5t75.5 -51t61 -66
t44.5 -89.5t15 -113q0 -110 -62 -198.5t-160.5 -135.5t-210.5 -47q-62 0 -120.5 10.5t-97.5 25t-69.5 29t-44.5 25.5l-14 10v69z" />
    <glyph glyph-name="scaron" unicode="&#x161;" horiz-adv-x="974" 
d="M690 1767h-70l-151 -222l-152 222h-69l154 -320h134zM92 117q127 -99 347 -99q57 0 110 14.5t100.5 44t76 81.5t28.5 120q0 56 -19.5 103.5t-47.5 77.5t-68 56t-72 39t-69.5 27.5t-49.5 20.5q-18 9 -58.5 27t-64.5 30.5t-60 34.5t-58 46t-44 57t-32.5 77t-10.5 97
q0 73 25 134t65 100.5t92 67t104 39.5t103 12q72 0 144 -19t108 -38l36 -19v-70q-5 3 -13.5 8.5t-37 18.5t-59.5 23t-79.5 18.5t-97.5 8.5q-119 0 -198 -62t-79 -168q0 -102 60.5 -165.5t186.5 -119.5q18 -8 54.5 -22t65 -25t67 -30t68 -38.5t60 -49.5t50.5 -64t33 -81
t13 -101q0 -110 -62 -198.5t-160 -135.5t-210 -47q-62 0 -120.5 10.5t-98 25t-70 29t-44.5 25.5l-14 10v69z" />
    <glyph glyph-name="Ydieresis" unicode="&#x178;" horiz-adv-x="1161" 
d="M761 1433l-94 94l94 95l94 -95zM423 1433l-94 94l94 95l94 -95zM1074 1285l-432 -721v-566h-147v562l-415 725h169l364 -635l380 635h81z" />
    <glyph glyph-name="Zcaron" unicode="&#x17d;" horiz-adv-x="1142" 
d="M785 1753h-69l-152 -222l-151 222h-69l153 -320h135zM318 68h720v-70h-932l713 1218h-721v69h933z" />
    <glyph glyph-name="zcaron" unicode="&#x17e;" horiz-adv-x="1142" 
d="M785 1753h-69l-152 -222l-151 222h-69l153 -320h135zM318 68h720v-70h-932l713 1218h-721v69h933z" />
    <glyph glyph-name="circumflex" unicode="&#x2c6;" horiz-adv-x="677" 
d="M561 1304h-70l-151 222l-152 -222h-69l154 320h134z" />
    <glyph glyph-name="tilde" unicode="&#x2dc;" horiz-adv-x="552" 
d="M355 708q0 -69 -60.5 -122.5t-149.5 -53.5q-52 0 -108.5 23.5t-108.5 47t-93 23.5q-59 0 -90 -30t-31 -64h-69q0 69 60.5 122.5t149.5 53.5q52 0 108.5 -23.5t108.5 -47t93 -23.5q59 0 90 30t31 64h69z" />
    <glyph glyph-name="endash" unicode="&#x2013;" horiz-adv-x="1380" 
d="M119 607v69h1145v-69h-1145z" />
    <glyph glyph-name="emdash" unicode="&#x2014;" horiz-adv-x="1585" 
d="M119 607v69h1349v-69h-1349z" />
    <glyph glyph-name="quoteleft" unicode="&#x2018;" horiz-adv-x="481" 
d="M311 1355h69l-154 -320h-134z" />
    <glyph glyph-name="quoteright" unicode="&#x2019;" horiz-adv-x="481" 
d="M164 1035h-70l154 320h134z" />
    <glyph glyph-name="quotedblleft" unicode="&#x201c;" horiz-adv-x="724" 
d="M556 1355h69l-154 -320h-134zM311 1355h69l-154 -320h-134z" />
    <glyph glyph-name="quotedblright" unicode="&#x201d;" horiz-adv-x="724" 
d="M164 1035h-70l154 320h134zM409 1035h-70l154 320h134z" />
    <glyph glyph-name="dagger" unicode="&#x2020;" horiz-adv-x="1060" 
d="M969 807v-70h-879v70h879zM564 -343h-69v1575h69v-1575z" />
    <glyph glyph-name="daggerdbl" unicode="&#x2021;" horiz-adv-x="1079" 
d="M100 82v70h879v-70h-879zM979 807v-70h-879v70h879zM574 -343h-69v1575h69v-1575z" />
    <glyph glyph-name="bullet" unicode="&#x2022;" horiz-adv-x="751" 
d="M375 393l-283 283l283 283l282 -283z" />
    <glyph glyph-name="perthousand" unicode="&#x2030;" horiz-adv-x="2301" 
d="M1889 572q43 0 84.5 -8t86.5 -29t78.5 -54t55 -88.5t21.5 -126.5q0 -142 -95.5 -223.5t-230.5 -81.5t-230.5 81.5t-95.5 223.5q0 71 21.5 126.5t55 88.5t78.5 54t86.5 29t84.5 8zM1889 30q35 0 69 10.5t68.5 34.5t55.5 73.5t21 117.5q0 124 -58.5 180t-155.5 56
t-155.5 -56t-58.5 -180q0 -68 21 -117.5t55.5 -73.5t68.5 -34.5t69 -10.5zM736 1000q0 -142 -95.5 -223.5t-230.5 -81.5t-230.5 81.5t-95.5 223.5q0 71 21.5 126.5t55 88.5t78.5 54t86.5 29t84.5 8t84.5 -8t86.5 -29t78.5 -54t55 -88.5t21.5 -126.5zM196 1000
q0 -55 14.5 -98t36.5 -68t52 -41.5t56.5 -22t54.5 -5.5t54.5 5.5t56.5 22t52 41.5t36.5 68t14.5 98q0 124 -58.5 180.5t-155.5 56.5t-155.5 -56.5t-58.5 -180.5zM1131 572q43 0 84.5 -8t86.5 -29t78.5 -54t55 -88.5t21.5 -126.5q0 -142 -95.5 -223.5t-230.5 -81.5
t-230.5 81.5t-95.5 223.5q0 71 21.5 126.5t55 88.5t78.5 54t86.5 29t84.5 8zM1131 30q35 0 69 10.5t68.5 34.5t55.5 73.5t21 117.5q0 124 -58.5 180t-155.5 56t-155.5 -56t-58.5 -180q0 -68 21 -117.5t55.5 -73.5t68.5 -34.5t69 -10.5zM1131 1310h84l-808 -1349h-81z" />
    <glyph glyph-name="Euro" unicode="&#x20ac;" horiz-adv-x="1337" 
d="M92 472v69h1063v-69h-1063zM92 750v70h1063v-70h-1063zM1244 140v-70q-6 -4 -16.5 -11.5t-48.5 -26t-80 -33t-110 -26t-140 -11.5q-85 0 -170.5 17t-181 64.5t-167.5 120t-119.5 195t-47.5 278.5q0 138 38.5 251.5t104 191t156 130t192 76.5t214.5 24q65 0 128 -8.5
t106 -21t76.5 -25t49.5 -21.5l16 -8v-70q-5 3 -15.5 9t-47 20.5t-77 26t-104.5 20.5t-132 9q-48 0 -94 -5.5t-103 -22t-105.5 -43t-96.5 -73t-81.5 -108t-54 -152t-20.5 -200.5q0 -112 19 -203t50.5 -152.5t77.5 -108t93 -72.5t105.5 -42t106.5 -21t103 -5q67 0 130 11
t105.5 26.5t76 31.5t48.5 27z" />
    <glyph glyph-name="trademark" unicode="&#x2122;" horiz-adv-x="1478" 
d="M92 1216v69h479v-69h-166v-574h-147v574h-166zM1366 642h-147l-44 368l-203 -363h-39l-202 357l-49 -363h-70l86 644h42l256 -453l253 453h42z" />
    </font>
</defs>
</svg>
